<?xml version="1.0" standalone="no"?> <!DOCTYPE svg PUBLIC "-//W3C//DTD SVG 20010904//EN" "http://www.w3.org/TR/2001/REC-SVG-20010904/DTD/svg10.dtd"> <svg version="1.0" xmlns="http://www.w3.org/2000/svg" width="600.000000pt" height="600.000000pt" viewBox="0 0 600.000000 600.000000" preserveAspectRatio="xMidYMid meet"> <g transform="translate(0.000000,600.000000) scale(0.100000,-0.100000)" fill="#c9a96e" stroke="none"> <path d="M2820 5641 c-539 -202 -1027 -477 -1455 -820 -353 -283 -697 -625 -989 -985 l-79 -97 6 -190 c27 -763 214 -1464 591 -2217 101 -202 152 -295 304 -550 l127 -212 110 -36 c664 -214 1410 -283 2130 -198 328 38 751 125 1045 214 l65 20 81 112 c580 802 872 1691 935 2845 l12 213 -58 77 c-659 879 -1494 1497 -2480 1833 -81 27 -157 50 -169 50 -11 -1 -91 -27 -176 -59z m260 -1 c25 -6 52 -14 60 -17 8 -4 18 -5 23 -5 4 1 7 -3 7 -9 0 -6 6 -9 14 -6 7 3 17 2 22 -3 5 -4 27 -13 49 -20 22 -7 63 -23 90 -35 28 -12 67 -28 87 -34 21 -7 40 -17 44 -22 3 -5 10 -7 15 -4 5 4 19 -1 31 -9 12 -9 30 -16 40 -16 10 0 18 -4 18 -10 0 -5 5 -10 10 -10 16 0 144 -63 152 -75 4 -5 8 -6 8 -2 0 4 48 -18 108 -49 59 -31 121 -64 137 -72 17 -9 33 -20 37 -26 4 -6 8 -8 8 -3 0 8 83 -44 88 -55 2 -5 8 -8 13 -8 12 0 157 -91 213 -134 25 -19 42 -37 38 -42 -4 -4 -1 -4 7 1 7 4 16 3 20 -2 3 -5 24 -20 45 -33 22 -13 66 -45 97 -72 32 -26 61 -48 64 -48 3 0 20 -13 38 -30 17 -16 58 -50 90 -75 32 -26 54 -51 51 -57 -4 -7 -2 -8 5 -4 12 8 84 -48 75 -57 -3 -3 6 -13 21 -24 14 -10 41 -30 58 -45 17 -16 35 -28 40 -28 4 0 6 -4 3 -8 -3 -5 6 -15 19 -22 14 -7 25 -19 25 -27 0 -7 6 -13 14 -13 7 0 24 -15 37 -34 13 -19 27 -32 31 -30 4 3 8 1 8 -5 0 -6 16 -25 35 -42 19 -18 32 -36 29 -41 -3 -5 -2 -7 3 -6 4 2 28 -19 53 -47 25 -27 60 -65 77 -85 18 -19 33 -41 33 -48 0 -7 4 -11 9 -8 5 3 17 -7 27 -22 10 -15 22 -32 28 -38 6 -6 27 -30 46 -54 19 -25 49 -60 65 -80 50 -59 76 -100 70 -110 -4 -6 1 -7 12 -3 10 3 15 3 11 -2 -4 -4 0 -15 9 -23 14 -14 15 -38 9 -182 -3 -91 -11 -205 -16 -255 -5 -49 -12 -128 -15 -175 -4 -47 -9 -88 -11 -92 -2 -4 -6 -28 -9 -55 -8 -91 -50 -344 -72 -433 -3 -14 -8 -34 -9 -45 -6 -32 -35 -159 -41 -175 -3 -8 -7 -30 -9 -48 -2 -18 -7 -38 -11 -45 -4 -6 -8 -16 -8 -22 -1 -15 -22 -82 -70 -231 -25 -74 -45 -142 -45 -150 0 -8 -4 -14 -10 -14 -5 0 -10 -10 -10 -23 0 -12 -7 -32 -15 -44 -8 -11 -22 -42 -31 -69 -9 -27 -28 -74 -42 -104 -15 -30 -27 -59 -28 -65 -6 -29 -42 -94 -49 -87 -5 4 -5 2 -2 -5 4 -6 -9 -42 -29 -80 -85 -160 -106 -199 -115 -208 -5 -5 -9 -16 -9 -25 0 -9 -8 -24 -18 -33 -9 -9 -26 -33 -37 -54 -11 -21 -22 -40 -25 -43 -12 -11 -70 -112 -70 -121 0 -5 -5 -9 -10 -9 -6 0 -14 -8 -17 -17 -6 -16 -33 -56 -70 -103 -7 -8 -33 -43 -58 -77 -50 -67 -55 -70 -230 -113 -27 -7 -88 -23 -135 -35 -136 -37 -243 -60 -315 -70 -11 -1 -27 -5 -35 -8 -24 -9 -210 -39 -265 -43 -27 -2 -77 -8 -110 -14 -186 -31 -262 -35 -680 -34 -284 0 -445 8 -595 29 -14 2 -59 9 -100 14 -41 6 -113 18 -160 27 -47 9 -95 17 -107 18 -13 0 -23 4 -23 7 0 4 -10 7 -22 7 -27 0 -84 13 -188 42 -41 11 -84 22 -95 24 -11 2 -22 5 -25 6 -3 2 -9 4 -15 5 -5 1 -17 4 -25 7 -8 3 -61 20 -117 37 -76 24 -106 38 -114 54 -7 12 -15 24 -20 27 -4 3 -9 12 -11 20 -2 8 -11 23 -20 34 -10 10 -15 23 -12 28 3 4 1 8 -5 8 -5 0 -13 10 -17 22 -3 12 -14 30 -24 41 -17 18 -53 79 -110 187 -14 26 -32 55 -39 64 -7 9 -10 16 -5 16 4 0 -2 10 -13 22 -11 13 -24 34 -28 48 -4 14 -13 32 -20 40 -15 19 -195 380 -195 392 0 5 -8 20 -17 35 -9 14 -18 34 -18 45 -1 11 -6 23 -12 26 -5 4 -24 47 -42 97 -18 49 -36 94 -40 100 -5 5 -28 66 -51 135 -23 69 -45 130 -48 135 -4 6 -7 15 -8 20 -1 6 -12 44 -25 85 -12 41 -24 84 -26 94 -2 11 -8 25 -14 33 -9 10 -8 13 2 13 9 0 10 3 4 8 -13 9 -59 169 -57 196 0 11 -3 27 -8 36 -5 10 -12 32 -15 51 -3 19 -17 90 -30 159 -13 69 -26 148 -29 175 -3 28 -10 88 -16 135 -17 133 -29 324 -30 455 0 98 3 125 18 146 50 75 76 109 83 109 5 0 21 18 35 40 16 23 33 39 40 36 8 -3 11 0 8 8 -3 7 9 25 25 39 17 14 31 29 31 34 0 4 25 34 55 65 30 31 55 62 55 68 0 5 3 9 8 8 4 -2 19 10 34 25 15 15 25 27 22 27 -3 0 1 6 8 14 7 8 16 12 21 9 4 -2 7 0 7 5 0 5 35 45 78 87 42 43 76 82 74 87 -1 5 1 7 6 4 5 -3 55 40 113 94 57 55 109 98 116 95 7 -2 10 2 7 9 -3 7 5 20 18 29 13 8 35 26 50 39 52 46 74 63 178 140 58 43 127 97 154 121 27 23 55 43 62 45 8 2 14 8 14 14 0 6 3 8 6 5 4 -3 18 3 32 13 13 11 32 20 41 20 14 0 14 2 1 10 -13 9 -13 10 0 10 8 0 42 18 75 40 33 22 63 40 66 40 3 0 39 22 80 48 41 27 110 66 154 88 44 21 82 42 83 47 2 4 10 7 18 7 8 0 14 4 14 9 0 5 10 12 23 16 12 4 24 8 27 9 3 1 16 8 30 16 48 27 122 60 136 60 8 0 14 4 14 8 0 5 26 19 58 32 31 13 80 34 109 47 28 12 59 23 67 23 9 0 16 5 16 10 0 6 6 10 14 10 8 0 36 9 62 20 26 11 54 22 63 24 37 7 76 20 100 33 27 14 56 13 131 -7z"/> <path d="M2815 5495 c-25 -12 -26 -14 -5 -9 28 7 60 23 45 23 -5 0 -23 -6 -40 -14z"/> <path d="M3160 5503 c8 -3 24 -10 35 -15 20 -9 20 -9 1 6 -11 9 -27 16 -35 15 -14 0 -14 -1 -1 -6z"/> <path d="M2744 5465 c-18 -13 -18 -14 4 -8 12 3 25 9 28 14 8 14 -10 11 -32 -6z"/> <path d="M3306 5450 c5 -5 38 -20 74 -33 102 -38 107 -39 76 -22 -36 21 -163 68 -150 55z"/> <path d="M2605 5410 c-22 -10 -33 -19 -25 -19 8 0 31 8 50 19 45 24 28 24 -25 0z"/> <path d="M2436 5335 c-25 -19 -16 -19 20 0 16 8 22 15 14 15 -8 -1 -24 -7 -34 -15z"/> <path d="M2261 5244 c-40 -20 -71 -38 -68 -40 3 -3 135 61 146 71 11 11 -11 3 -78 -31z"/> <path d="M3808 5219 c33 -22 47 -23 34 -3 -4 6 -20 14 -37 18 l-30 7 33 -22z"/> <path d="M2955 5219 c-63 -15 -148 -51 -167 -71 -9 -10 -21 -18 -26 -18 -16 0 -91 -82 -110 -120 l-17 -35 -85 -5 c-53 -3 -97 -12 -116 -22 -37 -20 -98 -111 -92 -136 4 -16 -4 -18 -66 -21 -76 -3 -113 -19 -155 -67 -27 -31 -51 -85 -51 -114 0 -18 -6 -20 -56 -20 -81 0 -129 -18 -169 -62 -19 -21 -35 -44 -35 -51 0 -29 -40 -57 -82 -57 -22 0 -57 -9 -77 -21 -41 -22 -87 -89 -97 -137 -6 -32 -7 -32 -68 -32 -33 0 -77 -5 -97 -10 -46 -13 -106 -73 -121 -122 -11 -37 -12 -38 -58 -38 -77 0 -109 -11 -153 -51 -40 -38 -77 -112 -77 -156 0 -22 -4 -23 -73 -23 -39 0 -88 -4 -106 -10 -42 -12 -87 -53 -110 -100 -22 -42 -35 -104 -21 -95 6 3 10 1 10 -4 0 -6 -4 -11 -8 -11 -5 0 -9 -6 -9 -12 0 -7 -4 -30 -8 -50 -5 -27 -4 -38 5 -38 8 0 10 -8 7 -21 -8 -31 21 -118 56 -166 17 -24 32 -41 34 -39 3 2 -10 31 -27 65 -17 34 -33 81 -36 105 -12 84 63 199 157 241 54 25 60 12 14 -35 -29 -29 -36 -42 -28 -52 19 -23 43 -120 43 -172 -1 -28 -7 -69 -15 -91 -19 -52 -18 -68 1 -32 8 15 18 27 22 27 9 -1 41 -69 58 -127 19 -63 18 -106 -6 -194 -49 -177 -50 -244 -4 -298 34 -40 12 -52 -28 -15 -40 39 -68 95 -68 140 0 21 16 71 37 118 49 108 50 159 4 239 -20 36 -37 55 -43 49 -5 -5 -11 -40 -14 -78 -5 -61 -3 -75 20 -119 14 -27 23 -51 21 -54 -8 -7 -75 60 -91 91 -23 44 -17 98 23 189 47 107 50 165 11 228 l-26 44 -16 -53 c-18 -61 -21 -168 -5 -190 8 -12 9 -11 5 6 -5 15 -2 21 9 21 9 0 14 -5 11 -11 -77 -173 -75 -211 19 -310 43 -46 44 -49 31 -75 -37 -71 -28 -150 25 -217 26 -33 112 -93 96 -67 -3 5 -1 15 4 23 9 13 10 13 8 0 -3 -26 1 -40 9 -40 14 0 7 32 -21 94 -26 55 -36 116 -19 116 13 -1 60 -85 67 -120 6 -35 -8 -103 -39 -185 -19 -49 -20 -124 -4 -162 26 -58 114 -133 138 -118 6 3 -4 -30 -20 -75 -17 -45 -30 -101 -30 -124 0 -56 36 -124 84 -157 53 -35 60 -52 41 -89 -28 -55 -30 -122 -6 -174 24 -48 82 -106 106 -106 19 0 19 -31 0 -77 -38 -91 -8 -191 76 -247 44 -30 46 -33 46 -82 0 -41 6 -60 29 -92 32 -44 97 -92 127 -92 10 0 41 -10 68 -21 27 -12 52 -20 54 -17 2 2 -9 16 -25 32 -17 15 -30 23 -30 17 0 -6 -9 -11 -20 -11 -15 0 -20 7 -20 25 0 15 6 25 15 25 9 0 12 -6 9 -17 -5 -15 -4 -16 5 -3 9 13 19 11 73 -17 118 -59 231 -66 333 -20 l50 23 50 -19 c69 -26 200 -20 267 12 l47 23 58 -23 c79 -31 196 -31 271 0 47 19 56 20 80 7 79 -41 201 -39 298 4 l45 19 57 -26 c49 -23 71 -27 157 -27 77 -1 109 3 137 17 27 13 43 15 56 8 9 -5 51 -16 93 -25 77 -16 163 -11 206 12 28 15 69 18 84 6 28 -22 86 -36 174 -40 76 -4 95 -2 125 15 19 11 34 24 32 31 -1 6 2 9 8 5 5 -3 15 -3 21 1 8 5 8 9 -1 14 -9 6 -4 13 16 25 93 57 103 66 128 116 37 75 31 157 -15 202 -11 10 -19 21 -19 24 0 4 43 50 95 103 126 128 150 179 142 294 l-6 82 46 44 c51 51 78 98 92 162 11 47 4 121 -10 112 -20 -12 14 54 37 71 26 20 90 105 79 105 -4 0 0 7 8 15 27 27 34 207 7 190 -4 -3 -10 2 -13 10 -4 9 -1 12 9 8 9 -3 14 2 14 15 0 12 4 23 9 26 16 10 97 140 109 175 7 19 12 61 12 94 0 60 0 60 -20 42 -39 -35 -31 -6 10 37 51 52 109 139 121 182 13 42 13 130 1 134 -5 1 14 27 43 57 57 60 75 104 75 185 0 45 -4 56 -32 81 -17 17 -37 28 -45 25 -7 -3 -13 -1 -13 4 0 6 -5 10 -11 10 -6 0 -8 -9 -4 -20 4 -14 2 -20 -7 -18 -20 4 -27 27 -27 89 -1 74 -45 143 -111 177 -39 20 -55 23 -116 18 l-71 -5 -11 37 c-17 55 -65 125 -108 158 -33 26 -46 29 -113 30 l-75 1 -34 72 c-44 93 -78 126 -155 149 -51 15 -64 16 -75 5 -22 -22 -45 -12 -50 22 -2 11 -7 22 -12 25 -4 3 -11 16 -15 30 -11 39 -52 88 -98 118 -34 22 -52 27 -106 27 l-66 1 -20 57 c-12 32 -24 55 -28 51 -4 -4 -7 2 -7 14 0 55 -141 117 -216 94 -42 -12 -64 -7 -64 17 0 27 -67 172 -92 198 -31 34 -74 55 -127 63 -49 8 -121 -5 -134 -23 -5 -9 -7 -8 -6 3 3 30 -1 41 -13 34 -7 -4 -8 -3 -4 4 17 28 -81 159 -110 148 -9 -3 -12 -1 -9 4 14 23 -99 43 -160 29z m-31 -39 c61 23 153 6 208 -40 20 -16 53 -67 82 -124 55 -110 103 -158 175 -179 38 -10 50 -20 70 -55 13 -24 21 -46 17 -49 -3 -3 -20 1 -38 10 -18 8 -49 22 -68 31 -61 28 -108 74 -182 179 -39 56 -80 113 -92 125 -32 36 -110 72 -155 72 -22 0 -42 4 -46 9 -3 6 -19 4 -40 -5 -54 -22 -65 -16 -15 10 25 14 48 20 51 15 3 -6 16 -6 33 1z m70 -77 c34 -17 111 -83 99 -84 -5 0 1 -4 12 -9 19 -8 19 -9 -2 -9 -13 -1 -23 3 -23 8 0 17 -114 44 -190 44 -73 1 -97 -7 -202 -61 -17 -9 -6 16 20 44 37 41 81 70 122 83 43 13 123 5 164 -16z m-94 -113 c-70 -60 -146 -89 -260 -100 -145 -13 -177 -24 -227 -76 -48 -49 -53 -52 -53 -26 0 37 56 109 105 132 41 20 56 22 133 16 105 -7 152 4 200 49 32 30 44 34 87 34 l50 0 -35 -29z m140 5 c30 -8 56 -12 59 -10 2 3 10 0 18 -6 7 -6 13 -8 13 -4 0 5 23 -25 52 -66 28 -40 65 -86 82 -101 40 -37 130 -84 189 -99 41 -10 56 -21 104 -80 32 -38 74 -80 95 -94 68 -45 211 -91 192 -62 -17 25 17 -19 56 -72 54 -75 176 -153 234 -150 4 0 23 -22 41 -49 38 -55 81 -94 134 -121 49 -25 101 -36 101 -21 0 6 -4 8 -10 5 -15 -9 -12 4 5 21 13 14 15 13 16 -3 1 -10 1 -21 0 -25 0 -4 8 -18 20 -30 11 -13 38 -46 60 -75 21 -29 60 -64 86 -79 59 -35 133 -55 151 -41 9 7 11 6 6 -7 -3 -9 -2 -16 4 -16 6 0 22 -20 36 -44 14 -24 42 -58 63 -76 46 -41 137 -83 166 -78 19 4 22 -1 25 -34 4 -62 31 -131 60 -155 l27 -23 -83 -82 c-134 -135 -162 -187 -169 -324 -5 -88 -7 -94 -41 -130 -51 -57 -95 -157 -100 -227 -3 -38 0 -63 8 -70 10 -9 11 -7 5 13 -4 16 -3 20 3 12 5 -7 16 -10 25 -6 30 11 18 -10 -39 -66 -33 -33 -69 -84 -91 -129 -33 -66 -37 -81 -38 -155 0 -74 -2 -83 -28 -111 -51 -55 -88 -144 -94 -229 -5 -60 -3 -76 8 -76 7 0 -5 -19 -27 -43 -52 -56 -77 -92 -97 -147 -25 -69 -25 -150 1 -150 4 0 8 22 9 50 2 89 50 171 162 280 122 118 151 159 151 215 0 36 5 47 41 78 22 21 43 37 45 37 2 0 4 -26 4 -57 -1 -90 -26 -133 -154 -258 -113 -110 -150 -163 -161 -226 -3 -22 -18 -45 -40 -64 -21 -18 -35 -39 -35 -53 0 -19 -4 -22 -20 -17 -15 5 -20 2 -20 -10 0 -9 -19 -38 -41 -63 -51 -57 -87 -131 -95 -194 -6 -47 -7 -48 -43 -48 -65 -1 -164 -61 -146 -90 5 -8 16 -4 34 14 49 47 119 58 196 31 38 -14 40 -13 91 20 66 44 88 88 79 158 -6 49 -6 51 9 31 19 -27 36 -98 30 -131 -11 -60 -47 -103 -121 -143 -24 -13 -45 -32 -48 -42 -14 -42 -49 -55 -142 -53 -97 3 -157 22 -254 80 -91 56 -187 67 -246 29 -20 -13 -23 -13 -23 1 0 28 77 69 139 73 54 4 60 2 121 -42 136 -96 171 -104 283 -67 81 27 106 51 56 52 -77 2 -116 -3 -151 -21 -31 -16 -38 -17 -48 -5 -7 8 -16 12 -21 9 -5 -2 -45 20 -89 51 -74 50 -86 55 -137 55 -63 0 -108 -18 -153 -62 -36 -34 -31 -35 -130 27 -80 52 -162 46 -241 -16 l-36 -28 -64 40 c-35 21 -79 42 -97 45 -49 9 -117 -14 -166 -57 -42 -37 -70 -48 -78 -31 -5 12 -92 70 -125 83 -70 28 -155 9 -214 -47 -23 -22 -29 -24 -53 -13 -14 7 -26 15 -26 19 0 10 -82 49 -118 56 -17 4 -46 1 -64 -5 -45 -16 -128 -73 -128 -88 0 -21 -14 -16 -84 32 -79 53 -101 60 -160 51 -45 -7 -136 -58 -136 -76 0 -19 -36 -10 -76 19 -21 16 -57 34 -79 41 l-40 12 0 141 c0 137 -1 144 -29 197 -15 30 -34 62 -41 70 -8 9 -15 50 -17 100 -3 67 -10 98 -32 147 -27 58 -76 120 -76 95 0 -7 -4 -12 -9 -12 -6 0 -5 16 1 38 12 45 4 134 -16 184 -9 20 -30 58 -47 83 -30 45 -32 53 -33 144 -1 87 -4 102 -33 161 -40 82 -61 109 -71 93 -4 -7 -8 43 -7 110 0 138 -14 182 -83 266 -37 45 -37 46 -37 141 0 91 -2 100 -39 175 -35 70 -39 86 -37 145 1 48 -4 83 -19 124 -21 56 -21 58 -3 79 53 64 64 70 122 78 130 18 213 70 291 181 28 40 40 48 84 59 28 6 67 20 86 30 50 25 131 99 123 113 -3 6 -3 8 2 4 4 -4 22 1 39 11 17 10 49 24 71 31 22 7 56 24 75 38 37 27 111 104 106 110 -7 7 -56 -11 -51 -18 8 -12 -89 -80 -145 -101 -27 -10 -91 -23 -142 -29 -124 -14 -181 -35 -226 -85 -36 -39 -36 -40 -13 -43 34 -5 105 25 138 58 20 21 39 29 70 31 23 2 45 1 48 -2 9 -9 -72 -69 -129 -95 -35 -16 -93 -29 -170 -39 -136 -17 -187 -39 -226 -99 l-25 -39 -3 28 c-3 19 6 42 25 68 46 66 75 81 160 87 l76 5 15 43 c15 46 61 98 99 113 13 5 66 9 116 9 117 0 156 11 213 60 32 29 54 40 78 40 17 0 36 4 41 9 6 5 39 14 76 19 36 6 87 20 113 33 48 22 161 117 152 127 -3 3 -12 -1 -21 -8 -13 -11 -14 -10 -7 11 6 15 20 26 38 30 51 10 95 39 158 103 55 56 68 64 130 80 38 9 81 23 95 31 49 25 153 123 145 136 -3 5 5 9 18 9 36 0 142 56 189 100 49 45 45 45 119 25z m-347 -17 c15 -11 13 -13 -17 -13 -23 0 -32 3 -29 12 6 16 24 17 46 1z m743 -7 c51 -23 78 -60 120 -167 18 -46 43 -98 55 -115 25 -35 104 -89 130 -89 9 0 33 -21 53 -47 35 -44 36 -48 17 -51 -11 -2 -49 10 -85 27 -82 40 -159 121 -218 234 -68 128 -120 177 -202 193 -36 6 -38 8 -21 20 27 20 103 17 151 -5z m-76 -66 c27 -14 41 -35 23 -35 -11 0 -73 39 -73 45 0 9 21 5 50 -10z m-673 -59 c-6 -8 -15 -12 -18 -10 -4 2 -13 -3 -20 -12 -22 -26 -96 -74 -139 -89 -22 -8 -86 -19 -142 -25 -155 -16 -198 -35 -251 -109 -9 -14 -20 -22 -23 -18 -12 12 26 93 59 124 43 42 98 55 195 47 68 -6 85 -4 128 15 27 12 60 33 74 46 17 16 39 25 68 26 23 2 42 7 42 12 0 4 5 5 10 2 6 -3 10 -1 10 5 0 6 4 8 10 5 6 -4 5 -11 -3 -19z m-157 -3 c0 -9 -56 -49 -82 -59 -28 -10 -21 12 10 34 40 28 72 39 72 25z m1253 -147 c49 -21 83 -63 117 -145 40 -99 69 -134 133 -164 39 -19 57 -35 70 -62 10 -21 16 -39 13 -42 -7 -7 -100 43 -136 74 -30 25 -59 66 -154 219 -34 54 -98 99 -156 108 -23 4 -38 11 -35 16 9 15 111 12 148 -4z m-1433 -34 c0 -11 -71 -71 -118 -99 -27 -16 -86 -34 -162 -49 -152 -30 -197 -53 -232 -118 -9 -17 -6 -18 44 -11 63 9 114 33 145 69 18 20 32 26 63 26 22 0 40 -4 40 -8 0 -13 -69 -66 -116 -90 -39 -20 -78 -28 -242 -52 -83 -12 -141 -43 -168 -90 -20 -32 -34 -39 -34 -16 0 59 72 140 140 156 27 6 58 9 69 5 18 -5 24 2 45 47 13 29 37 66 55 82 28 27 39 30 138 39 128 11 155 20 208 68 22 20 47 38 55 41 23 8 70 7 70 0z m1630 -162 c0 -5 6 -7 14 -4 25 9 95 -16 130 -47 21 -18 52 -67 79 -122 45 -94 91 -147 128 -147 10 0 19 -4 19 -9 0 -4 11 -24 25 -44 13 -20 20 -39 15 -42 -17 -10 -130 57 -163 96 -18 20 -52 75 -76 121 -52 100 -82 134 -137 159 -38 17 -66 49 -44 49 6 0 10 -4 10 -10z m-2000 -50 c0 -5 -2 -10 -4 -10 -2 0 -20 -7 -39 -15 -33 -14 -36 -14 -30 1 9 25 73 46 73 24z m-280 -178 c0 -8 -53 -42 -67 -42 -10 0 49 49 60 50 4 0 7 -4 7 -8z m2695 -20 c44 -22 61 -46 116 -155 42 -82 56 -101 94 -125 44 -27 103 -98 92 -109 -11 -11 -114 46 -150 83 -21 22 -63 82 -92 134 -56 100 -102 152 -147 169 -16 6 -28 16 -28 22 0 14 74 2 115 -19z m305 -217 c41 -21 84 -76 115 -145 40 -90 70 -128 120 -152 42 -21 82 -72 74 -96 -6 -17 -107 36 -148 77 -20 20 -58 77 -86 126 -60 107 -105 160 -151 177 -19 6 -34 16 -34 21 0 5 -7 6 -16 3 -8 -3 -13 -2 -10 3 7 11 106 1 136 -14z m-3420 -111 c0 -13 -65 -80 -107 -110 -49 -36 -126 -58 -256 -73 -105 -12 -159 -39 -198 -96 -15 -22 -25 -43 -23 -47 3 -5 -2 -18 -10 -30 -30 -42 -14 29 28 126 13 30 34 57 56 72 31 22 46 24 140 24 136 0 169 10 214 63 20 23 43 50 51 60 10 11 30 17 60 17 25 0 45 -3 45 -6z m-159 -31 c-16 -31 -59 -65 -71 -58 -8 5 -5 12 9 22 12 8 18 20 15 26 -4 7 -4 9 1 5 4 -4 14 -1 22 7 20 21 36 19 24 -2z m3608 -51 c0 -11 -2 -12 -6 -4 -2 6 -9 10 -14 7 -5 -4 -6 1 -3 9 8 20 24 11 23 -12z m273 -23 c78 -20 128 -88 128 -174 0 -26 10 -69 22 -97 20 -46 20 -53 7 -77 -36 -64 -73 -21 -90 106 -14 112 -28 165 -47 187 -22 25 -74 46 -112 46 -16 0 -30 4 -30 9 0 21 38 21 122 0z m-62 -29 c24 -15 7 -18 -20 -3 -14 7 -18 13 -10 13 8 0 22 -4 30 -10z m309 -246 c25 -32 28 -96 7 -145 -15 -36 -80 -102 -156 -160 -25 -19 -53 -43 -62 -54 -22 -25 -58 -118 -58 -150 0 -21 -53 -75 -73 -75 -12 0 -7 65 9 121 23 77 46 111 152 222 98 103 142 175 142 235 0 39 12 41 39 6z m-4441 -108 c6 -29 -8 -86 -21 -86 -8 0 -11 17 -9 56 3 36 8 54 15 51 7 -2 14 -12 15 -21z m4348 -281 c-21 -80 -49 -124 -145 -230 -86 -94 -151 -196 -151 -236 0 -9 -23 -34 -52 -54 l-51 -37 6 50 c11 90 52 156 170 271 112 110 147 163 147 222 0 29 6 37 38 55 20 11 40 18 44 15 4 -4 1 -29 -6 -56z m-4276 -26 c6 -23 9 -48 5 -57 -10 -26 -27 1 -32 52 -7 59 12 62 27 5z m4156 -46 c-18 -34 -22 -8 -4 34 8 21 12 24 15 11 2 -9 -3 -29 -11 -45z m-4004 -170 c20 -38 39 -81 43 -98 12 -52 6 -147 -15 -245 -28 -126 -15 -215 39 -269 17 -17 18 -21 5 -21 -27 0 -73 39 -99 84 -34 58 -33 114 5 216 42 114 40 158 -10 240 -22 36 -40 75 -40 87 0 25 20 73 30 73 4 0 23 -30 42 -67z m4004 -95 c-10 -73 -53 -149 -142 -248 -91 -102 -118 -140 -148 -213 -21 -52 -99 -157 -116 -157 -8 0 12 118 26 155 18 48 77 125 148 195 102 101 147 166 150 220 2 35 7 45 37 63 18 12 36 25 37 29 10 23 14 2 8 -44z m-3874 -329 c34 -80 36 -164 8 -270 -39 -144 -42 -164 -30 -211 7 -23 23 -58 36 -75 33 -43 10 -43 -35 -1 -35 32 -70 99 -71 132 0 10 18 64 40 118 53 132 51 193 -7 259 -8 9 -15 25 -16 36 -2 28 24 84 37 80 6 -2 23 -33 38 -68z m3754 -51 c-9 -85 -36 -130 -156 -253 -105 -107 -150 -174 -165 -242 -5 -24 -19 -41 -52 -63 -25 -17 -48 -28 -51 -25 -3 3 -1 5 4 5 6 0 11 16 12 36 3 46 29 121 55 159 11 17 71 82 132 145 112 115 134 150 133 211 0 18 11 37 38 62 21 19 43 33 48 30 5 -3 6 -32 2 -65z m-3812 -52 c18 -38 20 -56 7 -56 -9 0 -32 52 -36 82 -3 25 10 13 29 -26z m147 -237 c45 -89 49 -165 15 -300 -14 -59 -26 -124 -26 -145 0 -39 24 -98 57 -143 17 -23 17 -24 -2 -13 -63 36 -115 109 -115 161 0 20 16 79 36 131 43 113 42 155 -5 228 -17 27 -31 60 -31 73 0 22 24 69 35 69 3 0 19 -27 36 -61z m-51 -121 c20 -45 26 -98 11 -98 -19 0 -58 110 -46 129 10 18 15 13 35 -31z m168 -215 c21 -46 27 -77 30 -146 4 -80 7 -92 38 -138 48 -72 57 -115 53 -268 l-4 -133 37 -3 c25 -1 57 -15 94 -41 140 -97 191 -112 271 -79 19 8 46 15 58 15 22 0 75 -35 75 -49 0 -15 -108 -33 -177 -29 -61 3 -86 11 -184 60 -63 31 -124 59 -136 63 -34 10 -29 -11 12 -52 50 -50 48 -65 -4 -39 -38 20 -89 80 -97 114 -3 15 -8 33 -10 40 -2 8 5 58 17 112 16 78 18 107 10 137 -11 41 -67 116 -81 108 -8 -5 -18 -50 -26 -115 -4 -32 13 -87 38 -123 28 -39 16 -44 -25 -13 -77 59 -87 143 -32 269 45 103 46 151 5 224 -16 29 -30 64 -30 78 0 27 19 65 33 65 4 0 20 -26 35 -57z m3280 -97 c-8 -91 -38 -144 -150 -257 -110 -111 -151 -168 -169 -239 -10 -39 -18 -51 -47 -64 -19 -9 -37 -14 -40 -11 -13 12 19 121 50 172 18 30 77 97 132 150 100 97 135 152 136 208 0 21 11 41 37 67 21 20 42 37 47 38 5 0 6 -29 4 -64z m-3318 -93 c0 -24 -4 -43 -9 -43 -25 0 -64 144 -44 164 13 13 52 -78 53 -121z m3200 22 c0 -12 -32 -67 -36 -63 -7 7 17 68 27 68 5 0 9 -2 9 -5z m-3120 -245 c14 -26 15 -119 2 -132 -14 -14 -41 77 -35 120 6 37 17 41 33 12z m2987 -162 c-3 -25 -13 -48 -24 -55 -10 -7 -24 -17 -30 -23 -8 -7 -13 -7 -13 -1 0 5 4 12 9 15 5 3 12 17 15 30 21 83 53 108 43 34z m-2002 -152 c44 -29 91 -59 103 -66 28 -14 106 -9 169 11 39 12 45 11 70 -7 15 -11 28 -25 30 -31 6 -18 -96 -36 -174 -31 -63 3 -85 10 -185 62 -63 31 -134 60 -156 63 -50 7 -136 -22 -125 -40 4 -7 -1 -6 -11 2 -17 14 -16 16 6 33 56 45 124 70 168 62 14 -3 61 -29 105 -58z m276 50 c19 -7 64 -33 100 -58 106 -74 127 -78 255 -47 48 12 53 11 83 -11 38 -26 33 -33 -31 -49 -104 -25 -214 -5 -311 56 -54 34 -133 63 -171 63 -18 0 -53 -7 -76 -15 -50 -18 -50 -18 -50 -6 0 22 109 80 150 80 8 0 31 -6 51 -13z m-744 -11 c19 -8 64 -35 98 -60 35 -24 83 -50 107 -56 38 -11 52 -9 111 10 l68 23 34 -24 c19 -12 33 -27 32 -33 -5 -13 -94 -35 -148 -35 -58 0 -137 23 -197 58 -96 57 -151 75 -211 69 -31 -3 -67 -8 -81 -13 l-25 -7 24 26 c24 27 88 55 129 56 12 1 39 -6 59 -14z m1219 -31 c98 -69 155 -96 194 -91 52 6 140 31 140 39 0 6 -41 21 -91 32 -14 3 -50 -1 -80 -8 -60 -16 -68 -14 -48 10 21 26 89 54 132 54 43 0 73 -14 163 -75 91 -63 126 -70 207 -45 69 21 100 18 127 -15 19 -22 4 -31 -81 -46 -94 -17 -189 8 -282 73 -36 26 -46 17 -12 -10 15 -12 24 -25 21 -30 -10 -17 -125 -35 -183 -29 -42 4 -89 22 -178 66 -132 67 -181 76 -252 46 -76 -32 -41 15 42 56 58 29 113 21 181 -27z m-920 -49 c-22 -17 -76 -20 -76 -6 0 10 28 18 70 19 24 1 24 1 6 -13z m389 6 c-17 -16 -85 -18 -85 -3 0 5 21 10 47 11 29 1 44 -2 38 -8z m-745 -16 c-27 -15 -110 -20 -110 -7 0 18 15 22 74 22 58 -1 60 -1 36 -15z m1500 5 c0 -5 -15 -10 -32 -9 -28 0 -30 2 -13 9 28 12 45 12 45 0z m380 1 c0 -10 -69 -25 -77 -17 -7 7 35 24 60 25 9 1 17 -3 17 -8z"/> <path d="M2780 4469 c-318 -35 -585 -116 -880 -269 -148 -77 -200 -121 -200 -171 0 -30 -5 -36 -42 -53 -57 -27 -179 -150 -211 -214 -23 -45 -24 -53 -9 -48 9 3 46 7 82 11 36 3 78 8 93 11 31 6 31 12 1 -106 -15 -59 -44 -188 -44 -196 0 -12 17 -2 29 17 11 18 11 23 -1 30 -9 7 -7 8 8 7 15 -2 42 16 85 57 35 34 89 79 119 100 30 22 64 48 75 58 11 10 40 29 65 44 101 57 139 88 140 110 0 12 -4 25 -10 28 -48 29 107 106 357 176 214 60 517 84 734 60 177 -20 437 -93 594 -165 75 -35 89 -52 60 -76 -8 -7 -15 -18 -15 -24 0 -6 62 -53 138 -104 75 -50 149 -102 163 -114 15 -13 40 -33 55 -45 46 -37 154 -145 154 -154 0 -5 5 -9 10 -9 11 0 3 48 -11 66 -5 6 -6 13 -3 17 3 3 -6 54 -21 112 -14 59 -25 109 -22 111 2 3 35 0 73 -6 38 -5 85 -11 105 -13 l36 -4 -20 41 c-31 64 -104 144 -184 199 -59 41 -73 56 -73 77 0 52 -52 95 -225 182 -171 86 -334 149 -525 202 -172 47 -506 74 -680 55z m500 -48 c169 -29 296 -65 454 -128 195 -77 365 -164 424 -216 44 -40 19 -144 -49 -202 -44 -37 -72 -30 -244 60 -275 145 -592 224 -893 225 -334 0 -616 -68 -918 -221 -172 -87 -212 -99 -249 -75 -59 39 -96 153 -64 203 28 46 355 206 546 269 165 54 351 93 513 108 99 9 368 -4 480 -23z m-1553 -488 c25 -54 88 -113 119 -113 14 0 64 18 110 39 l84 40 15 -22 c14 -21 13 -23 -36 -52 -105 -61 -266 -182 -338 -252 -51 -51 -72 -66 -68 -50 3 12 19 73 36 136 17 63 30 115 29 117 -2 1 -47 -6 -101 -15 -54 -10 -100 -14 -102 -10 -6 8 59 91 98 128 30 27 119 90 129 90 4 1 15 -16 25 -36z m2544 -5 c24 -17 59 -45 77 -62 34 -31 97 -115 90 -120 -1 -1 -48 5 -103 14 -55 10 -101 16 -103 15 -3 -2 53 -222 63 -247 12 -30 -3 -20 -63 40 -63 64 -161 139 -298 227 -49 32 -90 59 -92 61 -2 1 2 11 9 22 12 18 15 18 105 -21 65 -28 100 -38 118 -33 31 8 90 66 106 106 16 38 36 38 91 -2z"/> <path d="M2915 4381 c-3 -2 -5 -44 -5 -92 0 -79 2 -88 20 -94 29 -9 40 2 40 40 0 48 16 52 36 8 22 -49 18 -45 54 -49 36 -4 39 12 10 49 -24 30 -25 43 -5 51 18 7 20 59 3 74 -13 10 -145 22 -153 13z m109 -40 c11 -18 -6 -41 -30 -41 -19 0 -24 5 -24 25 0 20 5 25 24 25 14 0 27 -4 30 -9z"/> <path d="M2722 4373 l-32 -4 6 -82 c8 -110 6 -106 56 -101 99 11 108 14 108 35 0 19 -4 20 -50 14 -46 -6 -50 -5 -50 13 0 17 7 21 42 24 32 2 44 8 46 21 3 16 -2 18 -45 16 -39 -3 -48 0 -51 14 -3 14 5 17 47 17 44 0 51 3 51 20 0 17 -6 20 -47 18 -27 0 -63 -3 -81 -5z"/> <path d="M3157 4355 c-9 -9 -17 -25 -17 -35 0 -21 42 -58 77 -66 24 -6 31 -28 13 -39 -16 -10 -50 5 -50 21 0 9 -11 14 -30 14 -37 0 -38 -13 -5 -46 22 -21 33 -25 77 -22 46 3 54 6 66 30 18 38 3 62 -53 83 -25 10 -45 22 -45 27 0 17 31 20 48 5 26 -22 62 -31 62 -15 0 31 -27 51 -77 55 -38 4 -53 1 -66 -12z"/> <path d="M2575 4340 c-4 -11 -5 -46 -4 -78 2 -33 -1 -55 -6 -52 -6 3 -22 31 -37 63 -24 51 -30 57 -58 57 -29 0 -42 -21 -21 -34 5 -3 26 -35 47 -71 35 -59 41 -65 71 -65 18 0 33 1 33 3 1 1 9 46 19 100 l17 97 -27 0 c-19 0 -30 -6 -34 -20z"/> <path d="M3349 4253 c-17 -93 -14 -106 26 -101 16 3 22 16 32 73 18 108 18 115 -15 115 -27 0 -28 -2 -43 -87z"/> <path d="M3470 4300 c0 -19 7 -24 47 -35 8 -3 5 -23 -9 -70 -11 -36 -19 -68 -17 -70 2 -2 16 -6 32 -10 18 -5 27 -3 27 5 0 7 7 37 16 67 15 53 17 55 44 49 23 -4 30 -1 35 15 4 11 5 22 3 24 -5 4 -156 45 -168 45 -6 0 -10 -9 -10 -20z"/> <path d="M2348 4303 c-22 -5 -22 -5 -3 -68 9 -27 20 -66 25 -87 10 -33 12 -36 38 -28 15 4 26 11 26 16 -10 56 -49 174 -58 173 -6 -1 -19 -3 -28 -6z"/> <path d="M2228 4259 c-17 -9 -17 -12 2 -48 10 -21 27 -41 36 -45 9 -3 14 -12 10 -21 -3 -8 -1 -15 5 -15 6 0 7 -5 4 -11 -4 -6 -31 16 -64 50 -42 45 -63 61 -83 61 -15 0 -30 -5 -33 -10 -3 -6 6 -49 22 -96 26 -81 29 -85 53 -79 14 4 26 8 28 10 2 2 -5 24 -17 49 -11 25 -16 46 -11 46 4 0 27 -16 51 -35 23 -20 48 -34 56 -30 8 3 19 5 24 5 15 0 10 28 -17 106 -27 74 -34 82 -66 63z m-57 -84 c14 9 10 -7 -6 -29 -8 -11 -15 -16 -16 -10 0 5 -3 23 -5 39 -3 25 -2 27 7 12 5 -9 14 -15 20 -12z"/> <path d="M3680 4175 c-30 -35 -58 -65 -62 -65 -18 0 -6 -18 19 -29 21 -9 28 -9 34 1 4 6 6 15 4 19 -3 3 11 -1 30 -10 19 -9 34 -23 35 -32 0 -13 37 -39 55 -39 3 0 5 45 5 100 0 99 0 101 -26 110 -14 6 -29 10 -32 10 -4 0 -32 -29 -62 -65z m82 7 c-7 -2 -12 -19 -12 -38 0 -37 -2 -39 -31 -24 -19 10 -18 12 8 45 15 18 31 31 37 28 6 -4 5 -8 -2 -11z"/> <path d="M2005 4178 c-11 -6 -21 -12 -23 -13 -1 -1 10 -30 25 -65 26 -61 26 -63 8 -76 -10 -8 -23 -14 -28 -14 -4 0 -21 29 -38 65 -28 62 -30 64 -54 53 -31 -14 -31 -19 8 -93 31 -57 34 -60 74 -63 48 -4 90 19 104 55 6 17 2 40 -17 88 -15 36 -29 67 -33 69 -3 3 -15 0 -26 -6z"/> <path d="M3885 4136 c-20 -30 -11 -51 36 -90 23 -20 29 -30 21 -38 -14 -14 -41 -3 -49 19 -14 39 -53 45 -53 9 0 -52 100 -97 142 -63 31 24 29 57 -5 88 -17 16 -35 29 -39 29 -5 0 -8 7 -8 15 0 8 9 15 20 15 11 0 20 -7 20 -15 0 -17 46 -42 57 -32 13 14 -18 59 -52 73 -49 20 -72 18 -90 -10z"/> <path d="M2856 4017 c-3 -16 -6 -42 -6 -56 0 -25 -4 -28 -67 -38 -38 -7 -71 -9 -74 -5 -3 4 -12 28 -19 55 -7 26 -17 47 -22 47 -23 0 -166 -33 -194 -45 l-32 -13 14 -61 c8 -34 12 -66 9 -71 -3 -4 -29 -20 -58 -35 l-52 -26 -22 25 c-11 14 -28 35 -37 48 -16 22 -16 22 -51 4 -19 -10 -42 -26 -52 -35 -10 -9 -35 -29 -56 -45 -21 -15 -41 -34 -43 -41 -3 -7 11 -36 32 -65 l37 -51 -46 -46 -46 -46 -39 32 c-22 17 -44 31 -48 31 -5 0 -40 -41 -78 -91 l-70 -92 52 -46 c54 -47 59 -59 42 -89 -5 -9 -15 -30 -20 -46 -7 -19 -15 -26 -25 -22 -8 3 -37 8 -63 12 -47 6 -49 5 -60 -22 -6 -16 -18 -64 -27 -107 -16 -74 -15 -109 2 -106 19 4 94 -15 100 -24 6 -10 5 -98 -1 -105 -2 -1 -30 -6 -62 -10 l-59 -7 3 -100 c4 -141 1 -135 83 -135 38 0 70 -4 70 -10 3 -20 4 -25 13 -38 10 -16 4 -22 -54 -53 -25 -13 -47 -24 -48 -26 -2 -1 19 -49 47 -107 50 -104 51 -105 79 -96 16 4 40 13 53 20 20 11 25 10 34 -5 30 -51 68 -104 99 -140 20 -22 36 -45 36 -50 0 -6 -15 -16 -32 -23 -31 -12 -77 -48 -106 -85 -12 -14 -8 -22 32 -60 45 -44 45 -45 26 -62 -29 -26 -25 -46 19 -89 l39 -39 46 38 c50 40 117 57 152 36 17 -9 17 -10 -6 -11 -55 -1 -190 -90 -190 -125 0 -18 61 -85 77 -85 7 0 24 9 36 21 60 57 109 66 166 31 133 -81 191 -87 306 -33 84 39 128 40 180 4 32 -22 51 -28 100 -28 52 0 69 5 123 38 35 20 72 37 83 37 11 0 56 -18 99 -41 112 -57 161 -57 256 0 90 55 120 53 212 -18 l66 -51 23 27 c12 16 27 40 33 55 11 25 9 30 -39 75 -48 46 -121 83 -163 83 -9 0 -20 5 -24 11 -5 8 10 10 53 7 51 -3 69 -11 128 -52 l69 -48 29 33 c42 51 44 74 10 103 -22 20 -24 24 -8 20 15 -4 27 5 48 38 15 23 27 47 27 54 0 33 -166 134 -221 134 -30 0 -29 14 7 54 19 21 48 60 65 87 l32 48 39 -20 c22 -11 45 -18 51 -16 7 3 34 48 62 102 l50 96 -25 20 c-14 11 -35 24 -47 29 -25 10 -29 34 -14 74 9 23 13 24 63 19 l53 -5 17 113 c9 62 15 116 12 120 -2 4 -27 10 -54 14 l-50 7 -1 49 c-1 27 -2 54 -3 60 -1 6 26 21 59 33 70 25 68 18 26 151 -31 97 -27 94 -103 81 -36 -7 -38 -6 -53 31 -33 77 -31 85 24 122 28 19 51 39 51 44 0 14 -79 135 -109 169 l-25 27 -47 -35 c-26 -19 -51 -34 -56 -34 -5 0 -20 14 -32 31 l-23 31 41 42 c23 23 41 45 41 49 0 7 -35 43 -127 130 l-40 38 -51 -51 -51 -51 -28 18 c-60 39 -63 45 -33 104 12 22 18 44 15 49 -9 15 -185 90 -211 90 -7 0 -22 -25 -35 -56 -20 -47 -26 -54 -44 -49 -11 4 -44 11 -72 17 l-53 10 0 58 0 58 -62 6 c-35 2 -88 4 -120 4 -54 -2 -56 -3 -62 -31z m216 -59 l3 -63 55 -7 c30 -4 68 -11 83 -17 45 -17 52 -14 72 40 11 28 24 53 28 56 6 4 140 -46 169 -63 4 -3 -4 -29 -18 -59 -13 -31 -24 -57 -24 -59 0 -4 103 -66 123 -74 4 -2 26 17 48 42 22 25 44 46 48 46 4 0 38 -29 77 -65 l69 -64 -49 -45 -49 -46 31 -32 c18 -18 38 -42 46 -52 13 -19 15 -18 64 17 27 20 52 37 55 37 6 0 97 -127 103 -145 3 -6 -20 -28 -51 -50 -31 -21 -54 -41 -53 -44 2 -4 16 -40 32 -81 17 -41 31 -76 31 -78 1 -1 21 5 45 13 23 8 48 15 54 15 6 0 21 -33 33 -74 13 -41 26 -81 29 -89 4 -12 -9 -20 -57 -34 l-64 -19 4 -79 c1 -44 4 -81 6 -83 1 -1 25 -5 54 -9 28 -3 51 -11 51 -17 -2 -47 -29 -181 -36 -179 -5 0 -29 4 -54 8 l-46 7 -10 -49 c-6 -26 -14 -56 -18 -65 -6 -13 3 -22 43 -43 28 -14 51 -27 51 -30 0 -15 -85 -165 -94 -165 -6 0 -22 9 -36 20 -37 29 -52 25 -79 -23 -22 -38 -77 -112 -109 -146 -7 -7 -49 -26 -93 -41 l-80 -27 69 63 c209 191 323 474 309 769 -15 301 -147 565 -372 740 -136 106 -263 165 -431 200 -98 20 -282 21 -384 1 -309 -60 -567 -258 -710 -544 -105 -209 -128 -504 -58 -732 43 -139 137 -297 237 -396 22 -23 41 -44 41 -48 0 -3 -21 -6 -46 -6 -53 0 -73 18 -161 148 -31 45 -60 82 -65 82 -5 0 -27 -9 -49 -21 -23 -11 -42 -19 -44 -17 -6 6 -75 161 -75 168 0 4 23 17 51 29 37 17 49 26 45 39 -3 9 -10 37 -16 61 l-12 44 -67 -6 -68 -6 -6 92 c-3 50 -4 94 -1 99 3 4 32 8 64 8 l58 0 4 78 c2 42 -1 80 -7 84 -5 4 -31 10 -57 13 -26 4 -50 11 -53 16 -3 4 2 47 12 95 l18 86 42 -6 c24 -3 53 -8 66 -11 20 -5 26 1 50 62 15 37 30 73 33 79 3 6 -14 24 -38 40 -72 49 -72 49 -10 128 30 39 59 70 64 68 6 -1 28 -17 49 -34 l40 -32 32 40 c18 21 44 51 59 66 l27 26 -40 53 c-21 29 -39 56 -39 60 0 5 10 14 23 20 12 7 45 30 73 51 28 21 53 38 56 38 3 0 20 -22 38 -50 18 -27 34 -50 36 -50 3 0 21 10 42 23 20 13 54 31 75 41 42 19 44 30 22 102 -9 32 -11 50 -4 55 5 3 46 14 91 23 92 20 93 19 104 -52 l6 -43 42 7 c22 4 66 10 96 13 l55 6 3 58 3 57 94 0 94 0 3 -62z m5 -159 c179 -24 400 -125 506 -231 14 -15 34 -32 44 -40 10 -7 36 -35 58 -63 22 -27 43 -52 46 -55 13 -12 79 -130 104 -185 98 -221 101 -541 7 -761 -17 -41 -36 -70 -46 -72 -9 -2 -15 0 -14 5 3 9 -19 73 -25 73 -2 0 -3 -11 -2 -24 3 -22 1 -23 -44 -14 -69 13 -81 18 -81 35 0 8 6 13 13 10 6 -2 19 3 27 11 13 14 12 15 -5 8 -11 -5 -44 -11 -73 -14 -53 -5 -104 12 -140 46 -7 6 -18 12 -23 12 -10 0 -26 11 -65 48 -28 24 -39 29 -28 10 4 -7 -1 -6 -10 3 -14 13 -15 21 -7 35 5 11 21 55 35 99 66 211 97 366 94 470 -1 69 2 88 25 137 41 87 32 163 -25 202 -32 23 -90 20 -123 -6 -24 -19 -29 -20 -39 -6 -6 8 -21 18 -34 22 -12 4 -20 12 -17 17 4 5 1 9 -4 9 -6 0 -11 10 -11 23 0 54 -94 114 -195 124 -104 11 -245 -54 -245 -113 0 -9 -4 -12 -10 -9 -5 3 -10 2 -10 -3 0 -5 -28 -23 -62 -40 -55 -29 -63 -31 -83 -18 -47 31 -100 22 -139 -24 -40 -48 -42 -95 -7 -173 17 -37 27 -67 23 -67 -13 0 -14 -94 -1 -175 6 -44 27 -141 46 -215 19 -74 36 -142 38 -150 3 -18 21 -63 36 -92 10 -18 9 -20 -5 -15 -9 4 -15 2 -13 -4 1 -6 -20 -26 -48 -45 -27 -19 -59 -41 -70 -49 -10 -8 -27 -15 -38 -15 -11 0 -15 -4 -11 -12 5 -8 -11 -10 -61 -5 -60 6 -66 5 -49 -8 21 -15 28 -12 -75 -45 -65 -20 -139 -28 -112 -11 9 6 10 11 3 15 -10 6 -32 -22 -32 -38 0 -3 17 -6 38 -7 l37 -1 -50 -13 c-27 -8 -50 -13 -51 -12 -7 9 -63 150 -72 182 -38 130 -43 345 -13 492 55 266 276 541 528 658 58 27 163 63 208 71 17 3 48 9 70 14 59 12 193 12 282 -1z m41 -124 c90 -42 96 -104 14 -152 -41 -25 -57 -28 -132 -28 -68 0 -93 5 -126 22 -72 38 -87 76 -49 121 53 64 197 82 293 37z m-203 -190 c72 -18 87 -19 152 -2 47 13 51 12 43 -2 -4 -9 -18 -25 -30 -36 -29 -27 -51 -70 -44 -88 3 -9 18 -21 34 -27 39 -16 51 -32 52 -70 1 -21 -6 -36 -19 -45 -17 -12 -20 -22 -16 -59 5 -40 2 -50 -26 -81 -39 -44 -40 -80 -4 -117 15 -16 32 -43 38 -61 7 -23 19 -35 42 -42 18 -6 35 -14 39 -18 8 -8 -15 -87 -25 -86 -10 1 -78 94 -100 137 -26 51 -55 72 -101 72 -46 0 -75 -21 -102 -73 -23 -46 -116 -163 -171 -216 l-35 -33 -32 98 c-97 302 -118 488 -70 609 29 74 112 160 190 197 l55 27 35 -34 c24 -23 54 -39 95 -50z m-330 59 c26 -7 50 -43 37 -56 -5 -5 -14 -3 -22 7 -13 15 -46 20 -74 9 -28 -11 -38 -65 -21 -113 18 -51 19 -71 5 -71 -15 0 -50 79 -50 113 0 35 23 81 52 101 24 17 40 19 73 10z m666 -23 c72 -47 117 -95 147 -157 25 -54 27 -69 27 -179 0 -132 -17 -216 -82 -420 -50 -155 -48 -153 -84 -119 -15 15 -25 32 -22 38 3 6 3 8 -2 4 -4 -4 -21 6 -37 22 -29 29 -29 31 -14 62 27 53 16 98 -24 98 -25 0 -40 15 -49 48 -8 27 -6 35 18 61 16 17 30 28 33 26 4 -5 8 20 11 75 1 22 7 40 12 40 6 0 3 5 -5 10 -13 9 -13 11 0 20 8 5 11 10 7 10 -5 0 -1 7 7 16 9 8 16 21 16 29 0 19 -26 66 -33 58 -9 -8 -37 17 -37 33 0 23 67 109 97 125 15 8 37 22 47 32 18 15 18 17 2 17 -50 0 -156 -92 -156 -137 0 -7 -2 -13 -4 -13 -10 0 -76 42 -76 49 0 17 134 181 149 181 4 0 27 -13 52 -29z m178 14 c16 -8 36 -30 45 -50 20 -41 15 -77 -16 -139 -17 -33 -22 -37 -29 -23 -6 11 -4 29 6 53 21 50 19 90 -5 114 -24 24 -57 26 -82 3 -13 -12 -21 -14 -29 -6 -8 8 -4 18 14 37 30 29 55 32 96 11z m-852 -43 c9 -6 3 -21 -21 -55 -18 -25 -36 -44 -40 -40 -13 14 -5 64 14 83 22 22 29 24 47 12z m836 -6 c23 -18 29 -49 15 -87 l-10 -30 -35 53 c-32 49 -33 53 -17 65 22 16 24 16 47 -1z m-226 -262 c2 -6 -8 -26 -23 -44 -26 -30 -27 -35 -17 -73 13 -47 9 -57 -40 -110 l-36 -37 -15 22 c-21 30 -21 32 16 74 27 30 33 46 34 84 0 54 29 101 58 97 11 -1 21 -7 23 -13z m-187 -326 c0 -4 -3 -8 -7 -9 -5 0 -18 -2 -31 -3 -13 -2 -25 1 -28 6 -3 4 -10 8 -15 8 -6 0 -7 -5 -3 -12 4 -7 3 -8 -4 -4 -34 21 18 48 60 32 15 -6 28 -14 28 -18z m45 -48 c4 -6 -26 -11 -82 -12 l-88 -2 88 -3 c48 -2 87 -8 87 -13 0 -11 -182 -18 -195 -7 -6 5 -4 11 5 17 10 7 11 10 3 10 -7 0 -13 5 -13 10 0 6 38 10 94 10 53 0 98 -4 101 -10z m-205 -212 l11 -176 -27 -54 c-89 -176 -217 -303 -350 -345 -51 -16 -55 -16 -90 3 -59 31 -165 126 -231 207 -35 41 -63 80 -63 86 0 6 11 11 24 11 60 0 281 83 380 143 111 67 248 189 303 270 14 20 27 36 29 35 1 -2 8 -83 14 -180z m359 41 c96 -95 170 -149 287 -207 81 -41 258 -102 294 -102 19 0 20 -2 5 -29 -33 -65 -139 -183 -213 -237 -89 -65 -103 -66 -210 -13 -103 51 -215 176 -291 326 -21 41 -21 49 -11 190 5 82 10 164 10 183 l1 35 21 -30 c12 -16 60 -69 107 -116z m-149 101 c0 -6 -40 -10 -100 -10 -60 0 -100 4 -100 10 0 6 40 10 100 10 60 0 100 -4 100 -10z m-29 -30 c11 0 19 -4 19 -10 0 -6 -37 -10 -90 -10 -49 0 -90 4 -90 9 0 16 24 21 84 16 32 -3 67 -5 77 -5z m19 -40 c0 -6 -37 -10 -90 -10 -53 0 -90 4 -90 10 0 6 37 10 90 10 53 0 90 -4 90 -10z m0 -30 c0 -6 -37 -10 -90 -10 -53 0 -90 4 -90 10 0 6 37 10 90 10 53 0 90 -4 90 -10z m0 -40 c0 -6 -37 -10 -90 -10 -53 0 -90 4 -90 10 0 6 37 10 90 10 53 0 90 -4 90 -10z m-7 -35 c-2 -5 -39 -11 -83 -13 -67 -2 -80 0 -80 13 0 13 13 15 83 13 48 -2 81 -7 80 -13z m-3 -35 c0 -6 -33 -10 -80 -10 -47 0 -80 4 -80 10 0 6 33 10 80 10 47 0 80 -4 80 -10z m0 -40 c0 -6 -33 -10 -80 -10 -47 0 -80 4 -80 10 0 6 33 10 80 10 47 0 80 -4 80 -10z m-3 -32 c-5 -18 -149 -17 -155 0 -3 9 18 12 78 12 61 0 81 -3 77 -12z m3 -38 c0 -6 -31 -10 -74 -10 -41 0 -78 5 -81 10 -4 6 23 10 74 10 47 0 81 -4 81 -10z m-4 -53 l3 -28 -76 3 c-75 3 -76 3 -79 31 l-3 28 76 -3 c75 -3 76 -3 79 -31z m-161 -60 c1 -7 4 -55 9 -107 13 -154 13 -160 0 -171 -7 -6 -15 -6 -18 -1 -7 12 -137 15 -167 4 -13 -6 -44 -16 -69 -23 -25 -7 -51 -20 -59 -27 -8 -7 -23 -11 -35 -8 -12 3 -28 6 -36 6 -8 1 0 7 19 15 18 8 38 12 45 8 6 -3 8 -2 3 2 -4 5 12 20 35 33 24 14 45 28 48 31 3 3 22 21 43 39 21 17 35 32 32 32 -3 0 3 8 13 18 34 37 57 68 74 101 28 56 62 81 63 48z m168 6 c20 -17 20 -17 13 1 -5 16 -4 17 9 6 9 -7 14 -19 11 -27 -3 -8 -2 -11 3 -8 6 3 18 -8 27 -25 10 -16 22 -30 27 -30 4 0 6 -4 3 -9 -3 -5 1 -11 9 -15 8 -3 15 -10 15 -15 0 -6 12 -23 28 -40 15 -16 39 -42 54 -59 l27 -29 -63 -5 c-35 -3 -79 -13 -97 -23 -19 -9 -47 -21 -62 -25 l-28 -9 5 50 c4 32 2 48 -4 44 -6 -3 -10 -13 -10 -21 0 -10 -14 -14 -54 -14 -54 0 -55 1 -52 28 3 26 5 27 67 27 l64 0 1 45 c1 25 4 62 7 83 3 21 4 44 1 50 -5 13 -118 16 -130 4 -4 -4 20 -7 54 -7 33 0 64 -4 67 -10 4 -6 -21 -10 -68 -10 l-74 0 -1 30 -1 30 66 0 c49 0 72 -5 86 -17z m-8 -68 c0 -5 -33 -11 -72 -13 -61 -2 -73 0 -73 13 0 13 12 15 73 13 39 -2 72 -7 72 -13z m-5 -35 c0 -6 -30 -10 -70 -10 -40 0 -70 4 -70 10 0 6 30 10 70 10 40 0 70 -4 70 -10z m-5 -36 c0 -5 -28 -10 -62 -12 -49 -2 -63 0 -63 11 0 11 14 14 63 12 34 -1 62 -6 62 -11z m-5 -34 c0 -6 -27 -10 -60 -10 -33 0 -60 4 -60 10 0 6 27 10 60 10 33 0 60 -4 60 -10z m-7 -107 c-6 -15 -103 -18 -103 -4 0 13 13 16 64 16 32 1 42 -3 39 -12z m-614 -56 c51 -26 102 -47 112 -47 10 0 60 16 111 35 51 20 116 39 145 42 46 5 61 2 126 -31 40 -20 81 -36 90 -36 8 0 53 18 98 40 67 32 94 40 140 40 45 0 73 -8 142 -40 104 -49 143 -51 206 -11 97 62 198 66 305 11 82 -41 112 -71 97 -97 -27 -48 -27 -48 -69 -15 -106 84 -183 92 -298 31 -70 -37 -83 -41 -133 -37 -36 3 -84 18 -134 42 -102 48 -142 48 -233 -1 -91 -48 -144 -50 -231 -5 -34 18 -76 32 -92 32 -16 0 -71 -16 -123 -36 -129 -51 -172 -50 -285 6 -48 23 -103 45 -124 47 -47 7 -100 -11 -129 -42 -29 -31 -50 -32 -79 -1 l-22 23 51 38 c109 80 187 83 329 12z m611 23 c0 -5 -22 -10 -50 -10 -27 0 -50 5 -50 10 0 6 23 10 50 10 28 0 50 -4 50 -10z m-795 -99 c-33 -9 -66 -20 -73 -25 -6 -4 -12 -5 -12 -2 0 13 78 45 110 45 31 0 27 -3 -25 -18z m1030 9 c15 -6 11 -8 -18 -8 -24 1 -33 4 -25 9 15 10 17 10 43 -1z m569 -19 c16 -6 26 -14 23 -17 -3 -3 -15 0 -27 6 -13 7 -43 16 -69 21 l-46 8 45 -3 c25 -2 58 -9 74 -15z m-1039 -1 c-27 -4 -59 -11 -70 -14 -11 -4 -6 0 10 8 17 8 48 15 70 14 39 0 39 -1 -10 -8z m-349 -62 l103 -51 113 41 c143 53 202 53 278 2 49 -33 70 -32 159 12 112 56 153 56 274 -1 48 -22 98 -41 110 -41 13 0 58 18 101 40 96 50 170 54 252 16 49 -23 124 -81 124 -96 0 -4 -9 -19 -21 -33 l-20 -27 -22 21 c-12 12 -44 34 -72 50 -74 43 -128 40 -230 -12 -99 -50 -132 -49 -255 10 -46 23 -95 41 -108 41 -14 0 -60 -18 -103 -40 -100 -51 -151 -53 -224 -10 -67 40 -110 39 -218 -5 -119 -48 -154 -47 -267 10 -62 31 -102 45 -130 45 -45 0 -114 -31 -123 -55 -9 -22 -30 -19 -57 10 -27 28 -21 41 37 77 105 64 165 64 299 -4z m184 7 c-14 -8 -36 -14 -50 -14 -21 1 -19 2 8 9 18 4 36 10 39 14 4 3 11 6 17 6 6 -1 0 -7 -14 -15z m889 -11 c10 -9 -55 -3 -69 6 -10 6 -2 7 25 3 22 -3 42 -7 44 -9z m-175 -100 c38 -19 85 -37 104 -40 23 -5 30 -9 21 -15 -19 -11 -53 -1 -131 39 -38 18 -87 36 -110 40 -33 4 -38 7 -23 13 28 10 59 2 139 -37z m-484 16 c10 -6 3 -9 -25 -9 -22 0 -65 -9 -95 -21 -108 -43 -147 -53 -166 -45 -15 7 -11 10 21 15 22 4 72 21 110 39 70 31 127 39 155 21z m-368 -66 c42 -24 89 -44 103 -44 15 0 63 16 108 36 107 47 154 49 229 6 30 -18 66 -32 78 -32 12 0 49 16 81 35 36 23 76 38 106 41 43 5 59 0 142 -41 61 -30 103 -44 116 -41 12 3 48 21 80 40 73 45 124 53 190 31 44 -15 155 -87 155 -101 0 -9 -30 -64 -36 -64 -2 0 -27 18 -54 39 -92 72 -147 76 -239 16 -91 -58 -108 -58 -233 6 -42 21 -89 39 -104 39 -14 0 -60 -19 -101 -41 -90 -50 -130 -50 -207 0 -28 17 -59 31 -69 31 -11 0 -62 -18 -113 -40 -52 -22 -109 -40 -128 -40 -32 0 -133 46 -166 75 -42 37 -116 25 -177 -28 l-35 -31 -19 25 c-10 13 -19 29 -19 36 0 19 72 73 120 88 62 20 102 11 192 -41z m553 6 c-8 -13 -55 -13 -75 0 -11 7 -2 10 33 10 30 0 46 -4 42 -10z"/> <path d="M2157 2586 c-9 -24 -9 -28 3 -21 5 3 20 1 32 -6 20 -10 21 -9 8 2 -8 8 -19 20 -25 28 -10 12 -13 11 -18 -3z"/> <path d="M3712 2537 c-25 -26 -31 -47 -6 -23 22 22 34 20 35 -6 1 -14 3 -17 6 -7 2 8 0 25 -5 38 l-8 22 -22 -24z"/> <path d="M2244 2525 c11 -8 24 -15 30 -15 5 0 1 7 -10 15 -10 8 -23 14 -29 14 -5 0 -1 -6 9 -14z"/> <path d="M2950 3661 c-48 -10 -80 -32 -87 -59 -19 -78 174 -111 250 -43 31 28 31 29 13 55 -26 41 -105 62 -176 47z m100 -42 c0 -5 7 -5 17 -2 10 4 14 2 10 -4 -4 -6 -2 -13 4 -15 8 -3 6 -10 -5 -21 -23 -22 -122 -23 -151 -1 -26 19 -25 23 4 38 27 15 121 18 121 5z"/> <path d="M2720 3372 c0 -23 62 -46 129 -46 34 -1 46 3 46 14 0 11 -15 17 -55 21 -31 3 -65 11 -77 17 -31 17 -43 15 -43 -6z"/> <path d="M2663 3304 c-7 -20 2 -28 57 -47 69 -24 132 -30 154 -14 28 21 11 37 -40 37 -24 0 -70 9 -101 20 -68 24 -62 24 -70 4z"/> <path d="M2647 3223 c-15 -14 -5 -25 36 -42 57 -25 158 -34 182 -17 29 21 8 36 -49 36 -29 0 -75 7 -102 15 -56 17 -58 17 -67 8z"/> <path d="M2656 3122 c-14 -22 66 -52 142 -52 34 0 42 3 42 19 0 16 -10 20 -62 24 -35 3 -75 9 -89 12 -15 4 -29 2 -33 -3z"/> <path d="M2690 3027 c0 -17 99 -43 126 -33 27 10 14 23 -28 29 -24 4 -55 9 -70 13 -21 5 -28 3 -28 -9z"/> <path d="M2612 2519 c-75 -72 -185 -149 -260 -183 -43 -19 -52 -33 -29 -42 17 -6 145 64 216 119 64 49 171 154 171 167 0 23 -30 5 -98 -61z"/> <path d="M2665 2393 c-79 -76 -171 -142 -258 -184 -47 -23 -55 -33 -37 -44 11 -7 105 40 184 94 58 39 206 177 206 192 0 25 -24 10 -95 -58z"/> <path d="M3175 2591 c-14 -23 105 -140 220 -218 52 -35 146 -83 161 -83 32 0 4 27 -73 70 -106 60 -134 81 -224 168 -46 44 -80 69 -84 63z"/> <path d="M3125 2460 c-10 -16 35 -68 129 -145 98 -82 242 -163 258 -147 7 7 2 15 -13 24 -13 8 -62 37 -108 64 -46 27 -123 86 -171 132 -49 45 -91 78 -95 72z"/> <path d="M2900 2410 c-11 -7 2 -10 43 -10 31 0 57 4 57 10 0 13 -80 13 -100 0z"/> <path d="M2928 2123 c12 -2 32 -2 45 0 12 2 2 4 -23 4 -25 0 -35 -2 -22 -4z"/> <path d="M4652 3527 c-40 -126 -57 -186 -171 -572 -27 -93 -61 -210 -76 -260 -15 -49 -37 -128 -51 -175 -158 -558 -171 -596 -203 -621 -14 -10 -31 -22 -36 -26 -6 -5 -31 -24 -57 -43 -26 -19 -48 -40 -48 -46 0 -15 76 -84 94 -84 7 0 34 16 58 35 l46 34 11 -44 c10 -42 14 -45 44 -45 53 0 107 12 107 23 0 6 -14 41 -31 77 l-31 67 40 114 c39 111 77 214 149 409 63 170 71 192 168 459 52 146 97 274 100 285 2 12 12 41 21 66 26 69 30 179 10 251 -14 49 -85 212 -99 225 -2 2 -22 -56 -45 -129z m88 -29 c23 -60 34 -105 38 -160 5 -85 1 -91 -48 -63 -32 18 -40 18 -40 2 0 -8 18 -21 40 -30 23 -9 40 -22 40 -31 0 -21 -8 -20 -48 4 -36 22 -52 25 -52 10 0 -5 18 -19 40 -30 22 -11 40 -27 40 -35 0 -20 -19 -19 -58 5 -38 23 -52 25 -52 7 0 -7 20 -21 45 -32 25 -11 45 -25 45 -30 0 -6 -23 -74 -51 -150 -28 -77 -84 -234 -126 -350 -41 -115 -79 -217 -84 -227 -8 -15 -12 -15 -56 2 -26 10 -49 22 -51 28 -1 5 24 101 57 213 175 590 271 922 271 935 0 34 19 8 50 -68z m-281 -1154 c3 -2 0 -9 -6 -15 -8 -8 -25 -7 -62 6 -46 15 -61 31 -45 48 5 5 102 -28 113 -39z m-66 -35 c20 -7 37 -17 37 -23 0 -6 -14 -50 -31 -98 l-32 -88 -47 0 c-26 0 -49 2 -52 5 -3 3 3 29 13 58 10 29 26 78 35 110 10 36 20 56 27 53 7 -2 29 -10 50 -17z m-56 -296 c-4 -10 -19 -53 -34 -95 l-28 -77 28 -56 c15 -30 27 -60 27 -65 0 -6 -17 -10 -38 -10 -39 0 -39 0 -51 55 -7 30 -15 55 -18 55 -3 0 -30 -20 -59 -45 -28 -25 -55 -45 -58 -45 -9 0 -56 43 -56 51 0 4 35 33 79 63 75 53 79 58 95 115 l17 60 42 4 c23 2 46 4 51 5 4 1 6 -6 3 -15z"/> <path d="M1205 3615 c-5 -11 -23 -53 -41 -92 -76 -165 -90 -252 -55 -348 10 -27 75 -201 146 -385 161 -423 154 -406 203 -530 23 -58 71 -180 106 -273 62 -158 145 -332 154 -322 10 10 -10 75 -23 75 -8 0 -15 5 -15 10 0 19 -2 25 -10 35 -4 6 -15 35 -25 65 -18 58 -73 202 -259 684 -63 164 -113 302 -111 306 4 6 24 11 98 22 17 3 32 -47 131 -417 62 -231 130 -476 150 -545 21 -69 38 -131 39 -138 0 -7 4 -9 9 -4 10 10 -6 89 -64 307 -22 83 -57 215 -78 295 -41 155 -123 458 -171 630 -16 58 -32 113 -34 123 -2 10 -6 26 -9 35 -3 9 -7 28 -10 42 -7 40 -35 145 -73 275 -56 191 -49 173 -58 150z m35 -175 c13 -52 34 -131 46 -175 13 -44 21 -81 18 -84 -13 -13 -140 -38 -151 -29 -18 14 -36 105 -31 156 6 53 78 247 88 235 3 -5 17 -51 30 -103z m80 -305 c0 -26 -148 -54 -157 -29 -2 6 24 17 59 26 84 20 98 21 98 3z m15 -56 c0 -20 -136 -54 -147 -36 -13 21 -9 27 20 28 15 0 45 6 67 14 47 15 60 14 60 -6z m15 -54 c0 -9 -20 -20 -52 -30 -64 -19 -84 -19 -91 -1 -4 10 10 18 51 29 76 19 92 20 92 2z m15 -56 c0 -17 -69 -41 -110 -37 -45 4 -33 21 25 34 28 6 54 14 57 18 10 10 28 1 28 -15z m15 -58 c0 -14 -12 -22 -44 -30 -64 -16 -86 -14 -86 7 0 12 9 18 29 20 17 1 40 6 53 11 36 15 48 13 48 -8z"/> <path d="M1794 1504 c9 -36 95 -236 108 -252 8 -9 218 -12 1012 -10 578 2 1000 7 998 12 -2 5 1 12 6 15 8 5 50 102 109 249 4 9 -223 12 -1117 12 l-1122 0 6 -26z m2193 -16 c-3 -7 -21 -49 -40 -93 -19 -44 -37 -88 -40 -98 -4 -9 -17 -21 -29 -25 -13 -4 -459 -5 -991 -2 l-968 5 -40 95 c-22 52 -44 99 -49 104 -6 6 -10 14 -10 18 0 4 489 8 1086 8 865 0 1085 -3 1081 -12z"/> <path d="M2002 1388 c2 -57 6 -73 18 -73 11 0 15 12 16 48 0 26 5 50 9 55 5 4 5 2 1 -5 -3 -6 -2 -14 3 -17 5 -3 12 -21 15 -41 4 -19 11 -37 16 -40 14 -8 40 24 40 50 0 43 19 37 22 -7 2 -30 7 -43 18 -43 12 0 15 14 15 70 0 69 0 70 -27 73 -23 3 -30 -2 -38 -25 -6 -15 -13 -35 -16 -43 -4 -10 -10 -1 -18 25 -10 35 -16 40 -44 43 l-33 3 3 -73z"/> <path d="M2210 1405 c0 -67 22 -95 75 -95 53 0 75 28 75 96 0 52 -1 55 -22 52 -20 -3 -23 -9 -23 -53 0 -47 -2 -50 -25 -50 -23 0 -25 4 -28 53 -3 48 -5 52 -28 52 -23 0 -24 -3 -24 -55z"/> <path d="M2400 1458 c-5 -29 -2 -138 3 -138 108 0 117 1 117 14 0 10 -13 16 -37 18 l-38 3 0 50 c0 44 -3 50 -22 53 -13 2 -23 2 -23 0z"/> <path d="M2574 1425 c-7 -19 -21 -51 -29 -72 -8 -20 -13 -38 -11 -40 7 -7 56 9 56 18 0 5 11 9 25 9 14 0 25 -4 25 -9 0 -5 14 -11 30 -13 17 -3 30 -1 30 3 0 4 -13 37 -30 73 -25 57 -33 66 -55 66 -20 0 -29 -8 -41 -35z m56 -35 c0 -11 -7 -20 -15 -20 -15 0 -21 21 -8 33 12 13 23 7 23 -13z"/> <path d="M2708 1454 c-4 -3 0 -24 7 -47 7 -23 16 -54 19 -69 5 -22 11 -27 28 -24 24 3 34 17 43 59 6 31 25 28 25 -4 0 -35 19 -59 43 -55 17 2 24 13 33 52 6 27 14 59 18 72 6 19 4 22 -18 22 -19 0 -26 -5 -26 -19 0 -26 -10 -51 -21 -51 -5 0 -9 11 -9 24 0 28 -24 51 -45 42 -9 -3 -18 -19 -21 -36 -7 -33 -24 -41 -24 -11 0 32 -11 51 -29 51 -10 0 -20 -3 -23 -6z"/> <path d="M2970 1413 c-11 -27 -24 -56 -30 -65 -5 -10 -10 -22 -10 -28 0 -15 36 -12 50 5 14 16 56 20 64 6 8 -12 56 -20 56 -9 0 4 -4 16 -10 26 -5 9 -18 38 -29 65 -16 39 -24 47 -46 47 -21 0 -29 -8 -45 -47z m58 -25 c-4 -27 -28 -36 -28 -10 0 20 8 32 22 32 5 0 8 -10 6 -22z"/> <path d="M3122 1388 c3 -65 5 -73 23 -73 15 0 20 7 20 30 1 35 15 37 32 5 13 -27 31 -40 56 -40 23 0 22 19 -3 45 -18 20 -19 23 -5 35 21 17 19 47 -4 60 -11 5 -43 10 -71 10 l-51 0 3 -72z m88 28 c0 -18 -30 -30 -43 -17 -5 5 -6 14 -3 20 10 16 46 13 46 -3z"/> <path d="M3290 1391 c0 -72 6 -86 29 -71 9 5 12 18 8 39 -10 47 10 46 25 -1 19 -57 39 -54 58 7 l15 50 3 -47 c3 -40 6 -48 23 -48 18 0 20 6 17 68 l-3 67 -30 0 c-26 0 -31 -5 -39 -37 -12 -47 -22 -48 -30 -4 -7 34 -21 46 -57 46 -17 0 -19 -8 -19 -69z"/> <path d="M3515 1389 c-15 -38 -25 -72 -23 -74 2 -2 17 2 32 10 33 18 73 20 78 4 2 -6 15 -9 30 -7 l26 3 -30 68 c-27 59 -34 67 -58 67 -24 0 -30 -7 -55 -71z m69 -19 c-5 -5 -15 -5 -23 -1 -11 7 -11 13 0 32 l12 24 10 -23 c6 -14 7 -26 1 -32z"/> <path d="M3672 1388 c3 -65 5 -73 23 -73 16 0 21 8 25 40 l6 40 22 -36 c13 -20 30 -39 40 -41 35 -10 42 2 42 73 0 68 0 69 -26 69 -25 0 -26 -2 -21 -35 8 -49 -6 -51 -37 -5 -19 29 -33 40 -52 40 -25 0 -25 -1 -22 -72z"/> <path d="M2028 5114 c-38 -20 -36 -28 2 -9 17 9 30 18 30 20 0 7 -1 6 -32 -11z"/> <path d="M4014 5111 c3 -5 22 -18 42 -30 19 -12 33 -17 30 -12 -3 5 -22 18 -42 30 -19 12 -33 17 -30 12z"/> <path d="M1943 5063 c-13 -8 -23 -21 -23 -27 0 -7 3 -8 8 0 4 5 18 18 32 27 13 9 20 17 15 16 -6 0 -20 -7 -32 -16z"/> <path d="M1850 5004 c-25 -19 -62 -44 -82 -56 -21 -12 -38 -25 -38 -30 0 -8 56 27 100 62 14 11 30 20 36 20 12 0 39 28 33 34 -2 2 -24 -12 -49 -30z"/> <path d="M4175 5010 c17 -13 36 -28 43 -33 6 -5 12 -6 12 -1 0 5 -15 18 -33 29 -47 29 -56 31 -22 5z"/> <path d="M4255 4955 c30 -25 59 -39 51 -26 -4 6 -22 18 -39 27 -30 14 -31 14 -12 -1z"/> <path d="M1615 4839 c-33 -23 -62 -45 -65 -48 -3 -3 -34 -28 -70 -56 -36 -27 -67 -52 -70 -55 -3 -3 -30 -25 -60 -50 -30 -25 -59 -50 -65 -56 -5 -6 -25 -21 -43 -33 -17 -12 -37 -32 -44 -44 -6 -12 24 10 68 48 119 106 255 214 357 286 49 34 65 49 55 49 -2 0 -30 -19 -63 -41z"/> <path d="M4449 4816 c14 -14 29 -26 34 -26 13 0 -12 29 -37 42 -19 10 -18 8 3 -16z"/> <path d="M4604 4696 c16 -14 31 -26 34 -26 10 0 -22 32 -42 42 -14 6 -11 1 8 -16z"/> <path d="M4801 4531 c18 -17 36 -28 38 -25 6 6 -49 54 -62 54 -5 0 5 -13 24 -29z"/> <path d="M4905 4431 c33 -32 62 -56 64 -54 6 4 -104 113 -115 113 -4 0 19 -26 51 -59z"/> <path d="M1139 4450 c-19 -16 -29 -30 -23 -30 5 0 23 14 39 30 37 39 28 39 -16 0z"/> <path d="M4980 4368 c0 -9 161 -171 165 -166 3 2 -34 42 -80 88 -47 47 -85 82 -85 78z"/> <path d="M941 4259 c-56 -56 -101 -104 -101 -107 0 -8 195 180 203 196 4 6 5 12 3 12 -2 0 -49 -45 -105 -101z"/> <path d="M5270 4057 c0 -4 20 -28 43 -55 24 -27 51 -60 60 -72 9 -13 19 -21 22 -18 3 3 -7 20 -22 38 -49 57 -103 113 -103 107z"/> <path d="M680 3980 c-42 -43 -37 -51 5 -10 19 19 35 35 35 37 0 9 -14 0 -40 -27z"/> <path d="M5462 3819 c64 -83 82 -102 72 -75 -3 9 -9 16 -13 16 -4 0 -14 12 -23 28 -9 15 -30 42 -47 61 -17 19 -31 38 -31 43 0 4 -5 8 -10 8 -6 0 17 -36 52 -81z"/> <path d="M571 3862 c-17 -31 -13 -40 5 -14 9 13 14 26 11 29 -3 2 -10 -4 -16 -15z"/> <path d="M513 3790 c-13 -16 -26 -36 -29 -46 -4 -11 8 1 25 24 36 49 39 65 4 22z"/> <path d="M443 3560 c0 -25 2 -35 4 -22 2 12 2 32 0 45 -2 12 -4 2 -4 -23z"/> <path d="M5544 3465 c0 -49 1 -71 3 -48 2 23 2 64 0 90 -2 26 -3 8 -3 -42z"/> <path d="M447 3463 c-3 -5 -1 -26 3 -48 l8 -40 1 48 c1 45 -2 56 -12 40z"/> <path d="M482 3100 c0 -19 2 -27 5 -17 2 9 2 25 0 35 -3 9 -5 1 -5 -18z"/> <path d="M5506 3085 c-3 -9 -5 -35 -5 -58 2 -40 2 -39 9 13 7 59 6 71 -4 45z"/> <path d="M493 3020 c0 -25 2 -35 4 -22 2 12 2 32 0 45 -2 12 -4 2 -4 -23z"/> <path d="M5486 2928 c-8 -29 -28 -179 -24 -183 2 -3 10 30 17 73 7 42 14 87 17 100 5 23 -4 31 -10 10z"/> <path d="M517 2865 c3 -22 9 -47 14 -55 5 -9 6 2 2 25 -3 22 -9 47 -14 55 -5 9 -6 -2 -2 -25z"/> <path d="M557 2665 c9 -58 24 -90 16 -35 -3 25 -9 52 -14 60 -5 9 -6 -2 -2 -25z"/> <path d="M5436 2648 c-3 -13 -5 -32 -5 -43 1 -11 5 -2 10 19 10 42 6 62 -5 24z"/> <path d="M590 2524 c0 -10 5 -26 10 -34 8 -11 9 -7 4 15 -8 37 -14 45 -14 19z"/> <path d="M5380 2389 c0 -11 5 -17 10 -14 6 3 10 13 10 21 0 8 -4 14 -10 14 -5 0 -10 -9 -10 -21z"/> <path d="M630 2380 c0 -8 5 -22 10 -30 9 -13 10 -13 10 0 0 8 -5 22 -10 30 -9 13 -10 13 -10 0z"/> <path d="M701 2153 c-1 -12 4 -25 9 -28 12 -7 12 2 0 30 -8 19 -9 19 -9 -2z"/> <path d="M720 2105 c0 -18 36 -115 42 -115 4 0 -2 26 -13 58 -22 58 -29 72 -29 57z"/> <path d="M5261 1983 c0 -6 -4 -20 -7 -30 -5 -14 -4 -15 5 -7 7 7 11 20 8 30 -3 11 -5 14 -6 7z"/> <path d="M5160 1719 c0 -2 -4 -19 -9 -37 -5 -17 -6 -32 -2 -32 10 0 24 61 16 68 -3 3 -5 3 -5 1z"/> <path d="M5103 1575 c-17 -36 -27 -65 -23 -65 8 0 63 121 57 126 -2 2 -17 -25 -34 -61z"/> <path d="M930 1578 c0 -2 21 -43 46 -93 25 -49 42 -79 38 -65 -13 46 -86 182 -84 158z"/> <path d="M5031 1418 c-15 -43 -8 -45 11 -3 8 19 12 35 8 35 -5 0 -13 -14 -19 -32z"/> <path d="M1036 1370 c9 -35 32 -77 46 -86 6 -4 3 8 -8 27 -11 19 -26 45 -32 59 l-12 25 6 -25z"/> <path d="M4976 1308 l-17 -33 20 24 c18 20 27 41 18 41 -1 0 -11 -15 -21 -32z"/> <path d="M1090 1253 c0 -5 11 -21 25 -38 l25 -30 -21 38 c-20 36 -29 45 -29 30z"/> <path d="M4910 1189 c-6 -11 -10 -25 -8 -30 2 -5 8 4 15 21 13 34 9 40 -7 9z"/> <path d="M4837 1069 c-10 -18 -16 -34 -14 -36 3 -2 14 12 25 32 12 19 18 35 14 35 -4 0 -15 -14 -25 -31z"/> <path d="M1301 885 c0 -5 6 -19 14 -29 8 -11 15 -15 15 -10 0 6 -7 19 -15 30 -8 10 -14 15 -14 9z"/> <path d="M1370 774 c0 -7 9 -22 21 -35 16 -19 18 -20 10 -4 -17 34 -31 51 -31 39z"/> <path d="M4626 754 c-10 -14 -16 -28 -13 -30 2 -3 12 7 21 22 10 14 16 28 13 30 -2 3 -12 -7 -21 -22z"/> <path d="M4480 667 c-22 -6 -29 -12 -19 -14 9 -2 32 3 50 11 39 17 20 19 -31 3z"/> <path d="M1605 630 c11 -5 29 -8 40 -8 16 0 15 2 -5 8 -34 11 -60 11 -35 0z"/> <path d="M1750 590 c8 -5 26 -10 39 -10 32 0 24 6 -19 14 -25 4 -31 3 -20 -4z"/> <path d="M4165 590 l-30 -8 30 -1 c17 0 37 4 45 9 13 9 13 10 0 9 -8 -1 -28 -5 -45 -9z"/> <path d="M4043 563 c9 -2 25 -2 35 0 9 3 1 5 -18 5 -19 0 -27 -2 -17 -5z"/> <path d="M2020 530 c8 -5 22 -10 30 -10 13 0 13 1 0 10 -8 5 -22 10 -30 10 -13 0 -13 -1 0 -10z"/> <path d="M3880 530 c-20 -6 -21 -8 -5 -8 11 0 31 4 45 8 20 6 21 8 5 8 -11 0 -31 -4 -45 -8z"/> <path d="M2088 513 c12 -2 30 -2 40 0 9 3 -1 5 -23 4 -22 0 -30 -2 -17 -4z"/> <path d="M2240 496 c0 -8 51 -13 56 -5 3 5 -9 9 -25 9 -17 0 -31 -2 -31 -4z"/> <path d="M3570 490 c-21 -5 -3 -6 45 -3 44 3 82 7 84 9 8 7 -93 2 -129 -6z"/> <path d="M2521 466 c2 -2 27 -6 54 -10 36 -5 46 -4 35 3 -13 10 -99 16 -89 7z"/> <path d="M3353 463 c9 -2 25 -2 35 0 9 3 1 5 -18 5 -19 0 -27 -2 -17 -5z"/> <path d="M2668 453 c17 -2 47 -2 65 0 17 2 3 4 -33 4 -36 0 -50 -2 -32 -4z"/> <path d="M3183 453 c20 -2 54 -2 75 0 20 2 3 4 -38 4 -41 0 -58 -2 -37 -4z"/> <path d="M2998 443 c23 -2 61 -2 85 0 23 2 4 4 -43 4 -47 0 -66 -2 -42 -4z"/> </g> </svg>