<?xml version="1.0" standalone="no"?>
<!DOCTYPE svg PUBLIC "-//W3C//DTD SVG 20010904//EN"
 "http://www.w3.org/TR/2001/REC-SVG-20010904/DTD/svg10.dtd">
<svg version="1.0" xmlns="http://www.w3.org/2000/svg"
 width="512.000000pt" height="512.000000pt" viewBox="0 0 512.000000 512.000000"
 preserveAspectRatio="xMidYMid meet">
<g transform="translate(0.000000,512.000000) scale(0.100000,-0.100000)"
fill="#c9a96e" stroke="none">
<path d="M2395 5084 c-16 -2 -77 -9 -135 -15 -329 -34 -713 -167 -1019 -352
-315 -190 -648 -523 -839 -838 -493 -818 -493 -1820 1 -2639 176 -292 481
-607 768 -793 325 -211 658 -336 1049 -394 143 -21 509 -24 650 -4 561 77
1050 310 1439 686 416 401 668 895 758 1482 23 153 23 527 0 683 -58 385 -182
720 -385 1035 -168 261 -448 547 -707 722 -311 209 -686 353 -1070 409 -97 14
-449 27 -510 18z m475 -64 c829 -111 1535 -611 1905 -1349 128 -255 203 -501
247 -806 17 -118 16 -492 -1 -615 -61 -443 -223 -837 -490 -1195 -96 -129
-337 -370 -466 -466 -359 -269 -750 -429 -1195 -490 -142 -20 -506 -17 -655 5
-1116 164 -1968 1032 -2117 2156 -16 125 -16 479 1 600 80 576 313 1053 711
1450 396 397 917 652 1454 710 50 6 107 12 126 14 58 7 399 -3 480 -14z"/>
<path d="M2541 4578 c-1 -29 -118 -144 -200 -197 -43 -27 -163 -89 -267 -138
-104 -49 -215 -106 -247 -127 -59 -39 -114 -100 -135 -149 -17 -39 -15 -120 3
-164 8 -20 14 -38 12 -39 -2 -2 -19 7 -37 21 -88 65 -194 71 -291 19 -56 -31
-231 -197 -362 -345 -43 -48 -108 -112 -147 -144 -74 -61 -191 -125 -227 -125
-29 0 -29 -2 6 -39 69 -74 118 -238 150 -511 27 -229 47 -316 86 -387 43 -78
95 -110 193 -121 l72 -7 -47 -35 c-52 -38 -92 -101 -103 -162 -16 -86 30 -213
156 -435 151 -264 194 -369 202 -495 l4 -76 42 16 c31 12 77 16 196 16 141 0
175 -4 368 -42 231 -46 300 -50 381 -27 71 22 135 84 151 148 12 45 30 73 30
45 0 -28 50 -117 84 -150 85 -83 225 -88 552 -19 275 58 452 64 542 18 l28
-13 0 65 c1 123 50 249 201 522 126 226 158 326 133 417 -12 46 -66 114 -115
144 l-30 18 46 0 c115 0 207 57 254 156 31 65 61 198 70 309 25 309 80 523
156 609 l29 33 -34 6 c-93 15 -253 128 -380 268 -129 141 -256 265 -304 296
-99 64 -191 65 -283 4 -24 -17 -45 -28 -47 -26 -2 2 4 24 12 49 21 62 20 104
-4 168 -37 101 -120 163 -365 276 -289 133 -352 169 -435 252 -41 41 -80 84
-87 95 -10 17 -12 18 -12 3z m93 -182 c59 -55 134 -101 276 -168 243 -115 345
-168 390 -201 85 -63 128 -155 115 -242 -11 -69 -13 -72 -55 -78 -47 -6 -153
-53 -280 -126 -180 -102 -247 -122 -266 -81 -8 19 -11 19 -29 6 -15 -11 -20
-25 -19 -59 1 -38 -3 -47 -25 -60 -51 -30 -109 -87 -126 -123 -17 -35 -16 -37
4 -65 25 -33 18 -36 -28 -13 -27 14 -37 14 -56 4 -13 -7 -28 -9 -34 -6 -12 8
-47 -8 -78 -37 -16 -14 -23 -16 -23 -7 0 8 -8 4 -19 -9 -11 -13 -24 -20 -30
-17 -5 4 -12 2 -16 -4 -4 -6 -11 -8 -16 -5 -5 4 -9 2 -9 -2 0 -5 -9 -9 -20 -9
-34 0 -19 29 25 50 46 23 114 90 116 114 1 9 1 30 0 45 l-1 28 22 -21 c12 -11
26 -20 31 -20 5 0 7 -7 3 -15 -3 -8 -1 -15 4 -15 5 0 8 -14 6 -30 -4 -37 9
-48 24 -19 9 16 9 28 0 50 -13 32 -78 95 -127 124 -28 16 -30 22 -26 55 4 30
1 42 -18 61 l-22 22 -8 -21 c-6 -16 -17 -22 -40 -22 -32 0 -133 43 -202 87
-70 44 -232 122 -279 134 -55 15 -68 36 -75 125 -5 49 -1 68 17 104 45 88 97
124 386 260 88 42 192 97 230 122 76 49 169 138 180 170 6 19 8 18 32 -13 14
-19 44 -51 66 -73z m-1016 -616 c19 -5 53 -20 76 -34 43 -25 43 -25 36 -70 -9
-58 2 -143 39 -310 42 -188 40 -287 -5 -269 -8 3 -14 -1 -14 -9 0 -27 27 -51
64 -57 36 -6 39 -9 56 -64 33 -105 86 -162 135 -143 9 3 2 -12 -15 -33 l-31
-38 20 -114 c10 -63 21 -118 23 -124 1 -5 -2 -11 -7 -13 -9 -3 -24 65 -40 182
-8 56 -41 96 -80 96 -33 0 -98 -33 -151 -76 -40 -33 -42 -33 -71 -19 -22 11
-38 13 -56 6 -32 -12 -41 -27 -22 -35 24 -9 18 -50 -14 -92 -16 -21 -89 -99
-163 -172 -74 -73 -147 -155 -163 -182 l-30 -50 -54 0 c-104 0 -177 57 -219
172 -18 48 -43 197 -67 408 -19 157 -70 312 -126 383 -17 21 -29 39 -28 41 2
1 22 8 44 14 109 31 220 124 465 391 177 192 278 246 398 211z m2053 -48 c63
-31 124 -86 274 -246 191 -203 307 -292 409 -313 l38 -8 -23 -25 c-68 -77
-116 -247 -144 -515 -28 -268 -61 -378 -133 -448 -41 -39 -112 -67 -171 -67
-36 0 -41 4 -67 48 -15 26 -94 115 -176 198 -187 189 -201 209 -172 239 35 34
-28 57 -86 31 -9 -4 -37 10 -74 38 -32 24 -77 49 -99 56 -36 10 -43 10 -69
-10 l-29 -21 3 35 c2 30 -5 43 -38 79 -59 62 -74 87 -31 50 21 -19 49 -33 63
-33 39 0 78 47 110 133 27 74 30 77 61 77 22 0 37 7 47 22 18 25 21 52 6 43
-6 -4 -17 -1 -25 5 -24 20 -18 106 21 282 19 90 37 197 38 238 l2 75 60 33
c49 27 67 32 110 29 27 -2 70 -13 95 -25z m-1781 -91 c41 -20 137 -69 212
-109 147 -77 206 -91 227 -54 9 16 10 16 17 -1 6 -18 -11 -97 -22 -97 -16 0
-241 98 -312 135 -71 38 -242 159 -242 172 0 8 45 -9 120 -46z m1470 44 c0
-12 -172 -132 -245 -171 -71 -38 -243 -114 -296 -130 -18 -6 -46 64 -35 92 6
15 8 16 24 0 38 -33 106 -15 243 65 148 86 309 161 309 144z m-1562 -137 c43
-128 66 -248 77 -405 l7 -93 -45 0 c-55 0 -67 14 -35 39 32 27 29 83 -15 301
-38 190 -50 280 -38 280 4 0 26 -55 49 -122z m1582 30 c-6 -46 -25 -143 -41
-217 -37 -168 -40 -248 -9 -273 30 -24 17 -38 -37 -38 l-46 0 7 83 c12 142 36
287 62 367 29 93 64 174 71 166 3 -3 0 -42 -7 -88z m-1519 10 c30 -24 80 -58
110 -75 50 -29 84 -45 293 -134 93 -39 136 -72 136 -103 0 -29 -27 -53 -117
-105 -40 -23 -73 -44 -73 -48 0 -3 14 -21 31 -41 l31 -35 -23 -18 c-32 -25
-33 -24 -60 16 -13 19 -27 35 -31 35 -3 0 -38 -29 -76 -64 -77 -70 -101 -83
-132 -66 -35 19 -47 60 -55 193 -3 71 -17 179 -30 242 -20 97 -34 141 -82 255
-8 17 -9 18 78 -52z m1464 0 c-14 -30 -34 -89 -45 -131 -21 -82 -50 -310 -50
-392 0 -51 -26 -110 -53 -121 -24 -9 -64 14 -132 75 -63 57 -85 71 -85 54 0
-5 -10 -21 -23 -37 -21 -26 -25 -27 -45 -15 -28 18 -28 25 3 65 14 18 25 35
25 37 0 3 -40 31 -90 62 -49 31 -92 65 -95 76 -4 12 0 31 10 45 17 27 64 50
250 128 129 54 212 101 292 167 32 25 59 46 61 44 1 -1 -9 -27 -23 -57z m620
-48 c10 -11 15 -20 12 -20 -4 0 -16 9 -27 20 -11 11 -16 20 -12 20 5 0 17 -9
27 -20z m-1235 -232 c0 -4 -4 -9 -9 -12 -10 -7 -2 -41 14 -66 14 -21 111 -98
100 -80 -5 8 4 3 19 -12 32 -31 27 -51 -12 -43 l-27 6 28 -16 c16 -9 26 -19
23 -22 -7 -7 -56 24 -56 35 0 5 -20 19 -45 31 -25 12 -45 27 -45 32 0 5 -7 9
-16 9 -18 0 -37 17 -47 42 -9 25 11 78 28 71 10 -3 13 1 11 14 -3 13 2 19 15
19 10 0 19 -4 19 -8z m-26 -182 c80 -37 202 -120 290 -196 15 -14 57 -59 92
-101 57 -69 64 -82 64 -120 0 -133 -71 -377 -159 -544 l-57 -110 -80 -14
c-109 -19 -455 -20 -557 -2 l-78 14 -28 56 c-83 164 -142 344 -176 534 l-17
97 25 33 c50 65 145 155 243 228 121 91 289 181 323 173 13 -3 65 -24 115 -48z
m-344 -36 c-8 -6 -24 -15 -35 -21 -16 -8 -15 -6 4 10 13 12 28 21 35 21 6 0 4
-5 -4 -10z m-183 -84 c-3 -6 -9 -10 -15 -9 -6 2 -9 -4 -6 -12 4 -8 1 -15 -6
-15 -6 0 -8 -5 -4 -11 4 -7 17 0 35 17 16 15 31 25 34 23 2 -3 -11 -21 -30
-39 -19 -19 -35 -29 -35 -23 0 6 -7 13 -15 17 -13 5 -14 2 -4 -16 10 -18 9
-20 -5 -15 -10 4 -16 1 -16 -6 0 -7 -15 -27 -32 -44 -32 -30 -49 -34 -94 -18
-27 9 -49 54 -34 69 7 7 10 6 10 -3 0 -9 9 -12 25 -9 13 3 22 1 19 -4 -14 -22
77 35 92 58 11 16 23 23 33 19 8 -3 12 -3 8 1 -4 4 -2 12 3 19 12 15 42 15 37
1z m847 -9 c-1 -9 2 -14 7 -12 4 3 32 -13 61 -35 48 -37 58 -41 99 -37 43 3
46 2 36 -15 -7 -10 -15 -18 -20 -18 -4 0 -6 -4 -2 -9 10 -17 -29 -30 -65 -21
-19 4 -30 8 -25 9 6 1 -3 10 -19 20 -17 11 -33 18 -36 16 -4 -2 -31 20 -60 50
-30 30 -49 55 -43 55 6 0 33 -24 59 -52 26 -29 44 -45 41 -35 -4 10 -7 24 -7
29 0 6 -3 8 -6 5 -10 -9 -46 41 -39 53 4 6 -1 7 -12 4 -15 -5 -16 -4 -3 5 20
14 35 8 34 -12z m-2173 -253 c-5 -16 -10 -21 -10 -12 -1 18 10 51 15 45 2 -1
-1 -16 -5 -33z m1108 -57 c12 -47 21 -187 12 -187 -22 1 -40 39 -44 97 -1 11
-6 19 -11 15 -5 -3 -7 2 -3 10 9 24 -34 75 -60 73 -12 -1 -19 3 -16 8 4 6 -3
8 -15 5 -12 -4 -20 -2 -16 3 3 5 13 9 22 10 14 0 14 2 2 7 -9 3 2 10 30 17 58
15 84 0 99 -58z m1347 -21 c1 -9 -3 -13 -12 -9 -8 3 -17 -2 -20 -11 -3 -9 -12
-15 -18 -14 -6 2 -12 -1 -13 -5 -1 -4 -8 -18 -16 -30 -7 -12 -17 -35 -21 -52
-23 -97 -26 -103 -45 -98 -14 3 -18 11 -15 26 2 12 9 54 15 92 12 78 29 126
41 119 4 -3 8 -1 8 5 0 29 91 7 96 -23z m-1614 -19 l27 -22 -99 -121 c-99
-121 -175 -195 -280 -271 -73 -52 -80 -56 -80 -43 0 6 79 91 175 189 178 181
215 233 196 270 -20 36 15 35 61 -2z m167 8 c11 -14 27 -58 36 -98 9 -40 23
-82 31 -95 l15 -22 40 21 c44 22 55 18 61 -20 2 -21 -3 -26 -39 -38 -24 -8
-43 -21 -43 -28 0 -7 16 -46 35 -86 42 -89 45 -132 10 -155 -29 -19 -34 -18
-249 25 -143 29 -172 32 -302 29 -79 -2 -144 -1 -144 2 0 3 17 15 38 27 70 40
178 140 262 244 122 148 151 180 185 201 38 23 40 23 64 -7z m1481 -50 c16 -8
71 -68 123 -132 109 -136 217 -244 300 -298 31 -21 57 -39 57 -40 0 -1 -55 0
-122 2 -130 5 -273 -13 -443 -57 -64 -16 -86 -18 -112 -9 -64 21 -64 52 -2
180 17 34 28 67 25 74 -2 7 -19 16 -36 20 -28 6 -31 10 -25 33 9 37 11 38 51
23 23 -8 39 -10 45 -4 6 6 19 49 31 98 19 81 43 125 68 125 6 0 24 -7 40 -15z
m170 10 c0 -3 -5 -13 -11 -23 -20 -31 15 -84 133 -199 118 -116 241 -253 233
-261 -7 -7 -146 97 -210 157 -57 54 -250 280 -244 285 2 1 17 12 33 24 26 20
66 30 66 17z m-2627 -64 c3 -24 2 -40 -3 -35 -8 9 -13 44 -11 73 2 25 8 8 14
-38z m1184 -210 c-3 -14 5 -43 18 -68 34 -64 60 -143 47 -142 -20 3 -32 -2
-27 -11 3 -5 -2 -10 -12 -10 -10 0 -29 -3 -43 -6 -14 -3 -20 -2 -14 3 38 28
39 91 4 169 -28 64 -32 84 -15 84 7 0 12 -8 10 -17 -1 -10 0 -12 2 -4 4 12 6
12 15 0 7 -10 8 -9 3 6 -4 11 -9 29 -12 40 l-4 20 16 -20 c9 -11 14 -31 12
-44z m-1141 -13 c12 -23 12 -27 1 -22 -8 3 -14 10 -15 17 0 7 -3 23 -6 37 -4
14 -3 18 0 10 4 -8 13 -27 20 -42z m3299 -33 c-10 -19 -19 -34 -22 -32 -2 3 4
21 13 41 10 19 19 34 22 32 2 -3 -4 -21 -13 -41z m-1115 -16 c0 -16 -9 -42
-20 -57 -28 -38 -36 -124 -15 -146 9 -9 15 -16 13 -17 -33 -8 -48 -7 -43 1 3
5 0 7 -9 4 -9 -3 -21 4 -31 19 -15 23 -14 27 9 70 13 25 26 44 29 41 3 -3 8
10 12 28 4 18 16 41 26 51 11 10 16 24 12 34 -4 11 -3 14 5 9 7 -4 12 -21 12
-37z m-1337 -143 c66 -13 122 -27 125 -31 9 -9 -21 -88 -35 -92 -6 -2 -13 6
-15 18 -7 49 -58 62 -361 89 -125 11 -222 28 -213 37 11 11 183 18 281 11 55
-4 153 -18 218 -32z m-482 -6 c39 -13 120 -26 237 -35 204 -17 237 -22 276
-42 22 -11 27 -20 23 -39 -3 -19 0 -24 18 -24 27 0 65 35 65 60 0 18 7 20 63
20 75 0 135 15 163 42 l22 19 22 -44 c13 -25 32 -48 43 -51 19 -5 19 -5 -2
-32 -26 -34 -27 -74 0 -159 l20 -67 -25 -23 c-19 -17 -26 -34 -26 -60 0 -34
12 -46 25 -25 26 42 72 -24 157 -222 67 -158 123 -263 152 -287 18 -15 5 -59
-33 -112 -36 -52 -78 -77 -147 -90 -72 -13 -127 -8 -359 37 -268 52 -429 55
-537 9 -16 -6 -18 0 -18 52 0 118 -40 220 -189 483 -116 204 -142 268 -148
362 -5 65 -2 83 16 121 19 39 99 127 116 127 3 0 33 -9 66 -20z m2501 -16 c37
-4 65 -10 63 -14 -7 -11 -132 -28 -317 -44 -185 -16 -258 -37 -258 -75 0 -46
-38 -12 -46 41 l-6 34 138 27 c77 14 150 28 164 30 43 7 192 7 262 1z m150
-44 c46 -38 88 -121 88 -174 0 -64 -50 -190 -132 -336 -151 -268 -191 -371
-192 -492 -1 -38 -3 -68 -6 -68 -3 0 -25 8 -50 17 -33 12 -77 16 -165 16 -102
-1 -154 -8 -346 -47 -245 -50 -337 -57 -416 -30 -64 21 -105 54 -136 106 -43
75 -43 81 7 142 25 31 77 122 117 203 96 198 132 253 163 253 13 0 26 -6 28
-12 3 -8 9 -4 17 10 14 27 7 55 -19 80 -19 18 -19 19 5 91 36 106 30 171 -19
186 -17 6 -14 8 19 15 21 4 41 11 42 16 2 5 8 16 13 24 8 13 11 13 22 -2 22
-29 83 -48 157 -48 64 0 70 -2 77 -22 10 -36 35 -58 63 -58 23 0 27 4 26 27 0
23 6 30 40 41 22 7 92 18 155 23 203 17 290 29 343 48 29 10 54 19 57 20 3 0
22 -12 42 -29z m-1652 -60 c-11 -7 -2 -9 30 -9 68 1 100 -3 100 -12 0 -5 10
-9 23 -9 12 0 29 -4 37 -10 25 -16 -10 -22 -73 -12 -75 12 -109 5 -146 -28
-30 -28 -31 -28 -32 -7 -3 61 18 97 55 97 17 0 18 -2 6 -10z m605 -36 c15 -23
16 -32 6 -66 l-12 -39 -20 26 c-35 44 -73 57 -149 51 -51 -4 -71 -1 -80 9 -10
11 -1 17 47 31 32 10 81 18 110 18 28 1 49 5 46 9 -14 23 36 -16 52 -39z
m-400 26 c18 -8 18 -9 -5 -9 -14 0 -32 4 -40 9 -12 8 -12 10 5 9 11 0 29 -4
40 -9z m180 0 c-28 -12 -57 -12 -50 0 3 6 21 10 38 9 27 0 29 -2 12 -9z m-76
-47 l-3 -48 102 3 c107 3 136 -5 147 -37 8 -28 -11 -69 -103 -213 -113 -177
-141 -237 -190 -403 -8 -28 -10 -25 -26 44 -24 106 -76 225 -166 382 -42 74
-81 145 -85 158 -21 67 32 100 131 82 32 -6 73 -11 91 -11 32 0 33 1 33 45 0
45 0 45 36 45 l36 0 -3 -47z m-1506 -173 c7 -29 1 -24 -17 11 -12 23 -12 28
-2 20 8 -7 16 -21 19 -31z m1254 -117 c99 -173 150 -300 177 -443 7 -34 6 -34
-9 -15 -26 31 -70 123 -126 257 -76 186 -117 246 -159 235 -34 -9 -25 30 13
53 17 11 34 20 37 20 3 0 34 -48 67 -107z m550 47 c19 -24 15 -30 -18 -30 -46
0 -77 -40 -154 -197 -77 -158 -153 -293 -165 -293 -13 0 38 156 79 245 21 45
73 136 115 203 l77 122 27 -18 c15 -9 32 -24 39 -32z m1134 11 c-15 -27 -31
-27 -24 -1 3 11 10 17 16 13 7 -4 8 0 3 13 -5 14 -4 16 4 8 9 -9 9 -17 1 -33z
m-2907 -18 c12 -23 13 -34 4 -39 -6 -4 -8 -3 -5 3 4 6 0 19 -8 29 -8 10 -15
25 -15 33 0 18 3 14 24 -26z m2864 -65 c-7 -13 -12 -27 -13 -32 0 -5 -6 -11
-13 -14 -11 -3 -12 0 -2 19 14 27 31 49 37 49 2 0 -2 -10 -9 -22z m-54 -109
c-16 -18 -40 -17 -28 2 3 5 10 6 16 3 7 -5 9 -1 5 9 -4 11 -2 14 9 10 13 -5
13 -8 -2 -24z m-24 -33 c0 -13 -28 -55 -33 -49 -4 3 -8 1 -8 -5 -3 -26 -4 -31
-11 -38 -17 -17 -7 30 12 53 11 14 17 29 14 34 -3 5 2 9 10 9 9 0 16 -2 16 -4z
m-2635 -64 c-3 -3 0 -11 6 -19 6 -7 8 -13 3 -13 -5 0 -4 -4 2 -8 6 -4 14 -18
18 -32 l7 -25 -15 25 c-8 14 -13 28 -13 31 1 4 -6 16 -16 26 -14 16 -15 20 -2
20 8 0 13 -3 10 -5z m2566 -61 c-6 -10 -7 -22 -3 -26 4 -5 2 -5 -4 -2 -6 3
-16 -9 -23 -29 -7 -18 -16 -34 -21 -34 -11 0 7 43 34 83 21 31 32 36 17 8z
m-53 -120 c-7 -9 -14 -18 -15 -20 -2 -2 -3 5 -3 16 0 11 7 20 15 20 12 0 12
-3 3 -16z m-2055 -245 c3 3 25 3 49 -1 34 -6 39 -9 23 -15 -11 -4 -22 -3 -25
1 -3 5 -21 8 -40 7 -19 0 -46 0 -60 1 l-25 3 25 7 c14 4 30 4 36 -1 6 -4 13
-5 17 -2z m1777 7 c-8 -3 -23 -10 -32 -15 -11 -5 -18 -5 -18 1 0 10 23 18 50
19 13 0 13 0 0 -5z m-125 -24 c-22 -5 -55 -9 -74 -9 -18 0 -39 -4 -46 -10 -14
-12 -43 -18 -103 -24 -76 -8 -182 -29 -182 -37 0 -5 -33 -8 -74 -7 -41 0 -79
-2 -84 -6 -6 -3 -13 -2 -17 4 -7 11 -6 11 90 14 39 1 77 5 85 8 16 7 157 37
205 44 17 2 46 10 66 17 19 6 67 13 105 14 63 1 66 1 29 -8z m-1390 -28 c27
-5 53 -7 58 -4 4 2 14 0 21 -6 8 -7 51 -14 97 -17 46 -3 87 -9 91 -12 9 -9
-67 -6 -80 2 -6 3 -12 1 -14 -5 -3 -9 -10 -9 -23 -2 -11 6 -38 13 -60 17 -22
3 -50 7 -62 10 -11 2 -43 8 -70 11 -26 4 -55 12 -63 16 -15 10 4 8 105 -10z"/>
<path d="M2536 3073 c-2 -2 -25 -6 -51 -8 -25 -2 -52 -8 -59 -14 -7 -6 -22
-12 -33 -14 -26 -4 -68 -32 -104 -68 -16 -16 -30 -29 -33 -29 -19 0 -67 -65
-71 -95 0 -5 -7 -8 -15 -7 -8 2 -12 0 -7 -4 4 -4 0 -19 -9 -32 -16 -24 -16
-26 6 -44 37 -30 66 -23 93 22 13 22 28 37 32 33 5 -5 3 1 -5 11 -8 11 -10 17
-4 13 6 -3 16 5 23 19 13 29 15 45 2 26 -7 -11 -9 -11 -14 1 -4 12 0 14 20 11
15 -3 33 2 43 11 12 11 20 13 25 6 3 -6 12 -11 18 -11 7 0 6 4 -3 10 -8 5 -11
12 -8 16 11 10 141 55 158 54 8 0 23 0 33 -1 9 0 15 -3 13 -7 -2 -4 12 -7 32
-7 21 0 48 -5 62 -12 14 -7 31 -13 38 -13 7 0 10 -5 6 -11 -4 -7 -1 -10 7 -7
8 3 22 -5 32 -16 10 -12 22 -21 26 -21 15 0 42 -35 35 -46 -4 -7 -3 -9 3 -6 5
3 22 -16 38 -42 l29 -48 31 18 c36 23 45 24 45 5 0 -7 -14 -16 -31 -20 -26 -5
-29 -8 -19 -21 10 -13 15 -12 35 3 30 22 38 51 19 69 -8 8 -14 18 -14 23 0 5
-10 18 -21 29 -15 13 -20 27 -16 41 3 12 3 19 0 16 -3 -3 -21 9 -39 28 -18 19
-36 31 -40 27 -4 -3 -4 2 -1 11 4 12 2 15 -7 12 -8 -3 -30 9 -50 26 -19 17
-40 29 -46 25 -6 -3 -18 -23 -27 -43 -15 -34 -17 -35 -21 -14 -3 21 -5 22 -16
7 -11 -16 -14 -16 -28 -1 -12 11 -26 14 -49 9 -27 -5 -31 -4 -26 10 4 10 2 17
-3 17 -6 0 -10 -7 -10 -15 0 -8 -4 -15 -10 -15 -5 0 -10 15 -10 34 0 19 5 38
10 41 6 3 10 -4 10 -16 0 -12 3 -19 8 -15 4 4 7 12 7 17 0 5 4 8 10 7 5 -2 8
-16 7 -33 -2 -29 -2 -29 13 -11 8 11 15 26 15 33 0 26 20 12 29 -19 9 -31 10
-31 16 -10 8 26 20 29 29 6 5 -14 8 -14 21 0 8 8 15 18 15 23 0 8 -6 9 -87 15
-24 1 -43 6 -43 10 0 7 -57 8 -64 1z m-28 -55 c2 -28 -1 -35 -15 -35 -10 0
-24 4 -30 10 -10 7 -13 4 -13 -9 0 -25 -16 -6 -24 29 -6 27 -6 28 37 31 6 1
12 -7 12 -16 0 -9 4 -20 9 -25 5 -4 6 6 3 25 -5 24 -3 32 6 30 6 -3 13 -20 15
-40z m-92 -13 c13 -53 -23 -77 -44 -30 -14 31 -15 45 -3 45 5 0 12 -11 15 -25
4 -14 11 -25 17 -25 6 0 8 7 5 15 -3 8 -9 22 -12 30 -3 8 -1 15 5 15 6 0 13
-11 17 -25z m352 3 c30 -30 0 -78 -37 -59 -19 11 -19 12 -3 41 19 33 23 35 40
18z m-409 -40 c13 -37 8 -46 -15 -27 -15 12 -16 11 -10 -9 9 -26 -8 -30 -31
-7 -8 8 -19 13 -24 10 -5 -4 -6 1 -3 9 7 19 16 20 31 5 9 -9 10 -6 6 11 -5 19
-3 22 10 17 11 -4 14 -2 10 9 -3 7 -1 14 5 14 6 0 15 -14 21 -32z m467 -30
c-8 -41 -15 -47 -27 -25 -6 9 -14 15 -20 12 -15 -10 -10 7 8 27 27 30 47 23
39 -14z m34 -14 c0 -8 4 -13 9 -9 5 3 12 1 16 -5 3 -5 -2 -10 -11 -10 -10 0
-26 -7 -36 -17 -10 -9 -18 -11 -18 -5 0 6 5 14 10 17 6 3 10 17 10 31 0 14 4
22 10 19 6 -3 10 -13 10 -21z m-596 -15 c-3 -6 2 -19 12 -30 21 -24 11 -38
-13 -17 -10 9 -24 17 -31 19 -9 3 -9 9 4 27 14 21 41 22 28 1z m646 -32 c0 -7
-7 -23 -16 -35 -17 -24 -13 -27 18 -11 25 14 35 4 17 -17 -12 -15 -11 -16 9
-10 33 11 27 -10 -8 -24 -36 -15 -49 -7 -29 17 10 12 10 15 1 9 -17 -10 -42
11 -35 30 3 8 -1 14 -11 14 -26 0 -19 17 12 28 37 14 42 14 42 -1z m-669 -26
c20 -16 22 -23 12 -38 -11 -19 -16 -19 -45 -8 -12 5 -18 2 -18 -8 0 -8 9 -17
20 -20 11 -3 20 -11 20 -17 0 -8 -6 -9 -17 -5 -10 4 -26 7 -35 7 -22 -1 -23
21 -3 42 8 8 15 20 15 26 0 8 8 7 25 -4 14 -9 25 -12 25 -6 0 5 -9 15 -20 22
-21 13 -27 28 -11 28 5 0 19 -9 32 -19z"/>
<path d="M2746 2984 c-8 -21 -8 -24 3 -24 12 0 22 28 12 35 -5 3 -12 -2 -15
-11z"/>
<path d="M2543 2927 c-13 -5 -23 -14 -23 -19 0 -4 -7 -8 -16 -8 -9 0 -28 -6
-42 -14 -15 -8 -39 -17 -54 -21 -35 -7 -35 -21 -2 -116 39 -113 57 -230 42
-265 -12 -28 -13 -26 -16 33 -3 55 -6 64 -25 68 -12 3 -44 -1 -72 -10 -107
-32 -142 -16 -131 62 5 37 4 45 -6 35 -18 -18 -19 -83 -2 -109 18 -28 70 -31
134 -8 23 8 44 15 46 15 10 0 2 -78 -13 -135 -20 -75 -12 -103 37 -127 l32
-15 -48 -17 c-62 -21 -97 -20 -117 2 -24 26 -21 33 8 26 15 -4 25 -2 25 5 0 6
-13 11 -28 11 -27 0 -52 15 -52 32 0 4 14 8 32 8 39 0 26 17 -17 22 -19 2 -31
9 -33 20 -3 15 2 17 30 11 40 -7 30 7 -15 22 -22 7 -33 17 -35 33 -4 25 -3 26
32 12 17 -6 26 -6 26 0 0 6 -14 13 -31 17 -17 3 -37 17 -46 30 -14 22 -14 27
1 65 19 50 14 62 -8 19 -18 -34 -20 -69 -7 -103 5 -13 15 -43 22 -68 7 -25 19
-56 26 -70 7 -14 13 -31 13 -37 0 -7 4 -13 9 -13 5 0 14 -13 21 -30 20 -48 66
-57 150 -30 52 17 76 20 97 13 26 -9 23 -10 -31 -17 -33 -4 -76 -17 -101 -31
-36 -22 -44 -32 -49 -66 -4 -22 -4 -44 -1 -49 3 -5 29 0 58 12 43 18 75 22
191 23 125 2 145 0 199 -21 34 -13 62 -24 64 -24 5 0 3 46 -3 77 -7 36 -66 69
-145 79 -40 5 -48 9 -34 16 18 11 27 9 115 -16 75 -22 103 -14 140 40 16 25
30 51 30 59 0 8 5 17 10 20 6 3 10 17 10 30 0 13 5 27 10 30 6 3 10 17 10 30
0 13 8 37 17 53 16 27 16 32 0 73 -31 80 -82 125 -56 50 9 -25 9 -38 -1 -57
-16 -29 -40 -30 -131 -7 -91 23 -99 18 -99 -59 -1 -51 -3 -59 -12 -44 -17 30
-2 141 37 261 31 94 34 111 21 123 -8 8 -26 15 -40 15 -14 0 -31 6 -37 13 -6
8 -20 14 -30 14 -10 0 -21 4 -24 10 -12 20 -40 28 -62 17z m38 -17 c17 -10 18
-19 14 -103 l-4 -92 12 80 c9 60 16 81 29 83 26 5 28 -11 13 -84 -16 -76 -19
-111 -8 -100 4 4 14 42 23 84 15 77 28 93 59 73 11 -7 7 -26 -19 -102 -17 -52
-34 -120 -37 -151 l-6 -57 -31 34 c-27 28 -31 39 -28 72 4 43 -16 70 -43 59
-22 -8 -37 -53 -26 -75 8 -14 3 -23 -20 -43 -16 -15 -29 -32 -29 -40 0 -7 11
1 25 17 21 26 24 28 25 10 0 -20 -45 -95 -57 -95 -3 0 -3 9 0 21 9 33 -10 127
-47 240 -19 57 -34 104 -33 105 1 2 14 5 29 9 28 7 29 4 53 -127 4 -21 11 -38
16 -38 5 0 7 10 4 23 -30 135 -32 146 -22 156 30 30 47 -6 47 -95 0 -24 5 -44
10 -44 13 0 13 33 0 100 -9 45 -8 56 6 72 20 21 20 21 45 8z m4 -240 c3 -10 1
-29 -5 -41 -11 -19 -14 -20 -27 -6 -10 10 -13 24 -9 41 8 31 32 34 41 6z m382
-87 c10 -44 -5 -70 -49 -87 l-43 -16 38 4 c27 4 37 1 37 -9 0 -20 -28 -45 -50
-45 -10 0 -22 -5 -26 -12 -5 -8 2 -9 24 -5 18 4 32 3 32 -1 0 -15 -24 -32 -46
-32 -13 0 -26 -4 -29 -10 -4 -6 5 -10 19 -10 16 0 26 -6 26 -14 0 -16 -21 -26
-56 -26 -13 0 -24 -5 -24 -11 0 -7 10 -9 25 -7 29 6 32 -4 8 -27 -18 -19 -74
-17 -127 4 l-28 11 33 23 c41 28 47 60 25 145 -14 52 -21 112 -13 112 1 0 24
-7 51 -15 101 -31 151 -12 144 53 -4 31 -3 32 9 16 8 -11 16 -29 20 -41z
m-387 -3 c0 -12 6 -33 14 -48 20 -37 93 -105 106 -97 5 3 10 35 10 70 0 35 5
67 10 70 6 4 10 -12 10 -42 0 -26 7 -73 15 -103 8 -30 12 -63 9 -72 -6 -19
-63 -58 -85 -58 -8 0 -26 -7 -41 -14 -23 -12 -28 -12 -28 -2 0 8 -9 24 -19 37
-20 24 -20 24 -35 4 -8 -11 -16 -28 -16 -37 0 -15 -7 -14 -62 8 -33 13 -70 32
-81 41 -21 19 -21 19 6 173 14 84 29 81 26 -5 -1 -31 2 -60 7 -65 14 -14 102
71 109 106 11 49 14 54 30 54 8 0 15 -9 15 -20z m61 -51 c25 -49 24 -57 -2
-33 -19 17 -49 72 -49 90 0 15 33 -22 51 -57z m-63 -273 c-9 -17 -11 -17 -26
-3 -13 14 -14 21 -3 44 l13 28 13 -25 c9 -17 10 -30 3 -44z m-20 -37 c3 -15
-5 -16 -61 -12 -55 5 -73 2 -121 -20 -45 -21 -56 -23 -56 -11 0 8 24 26 53 40
64 30 179 32 185 3z m192 -4 c28 -14 50 -32 50 -40 0 -12 -9 -10 -42 8 -33 17
-60 22 -115 22 -63 0 -73 2 -73 18 0 29 117 24 180 -8z m-216 -25 c14 -5 26
-16 26 -24 0 -12 -6 -13 -32 -5 -51 14 -84 11 -148 -15 -47 -19 -60 -22 -60
-10 0 8 1 14 3 14 1 0 29 11 62 25 64 26 108 31 149 15z m193 -10 c57 -20 92
-44 81 -55 -3 -4 -24 3 -47 14 -52 27 -121 37 -160 23 -26 -9 -31 -8 -31 4 0
36 76 42 157 14z"/>
<path d="M2554 2525 c-1 -13 -16 -46 -33 -72 -36 -53 -37 -60 -15 -91 12 -18
19 -20 35 -12 13 7 25 7 38 0 16 -8 23 -6 35 12 9 12 16 33 16 46 0 23 -59
142 -70 142 -3 0 -6 -11 -6 -25z m43 -82 c-2 -12 0 -20 4 -17 10 6 11 -2 3
-34 -5 -18 -13 -22 -40 -20 -18 1 -31 5 -28 9 2 4 0 9 -4 11 -5 1 -4 19 1 38
8 30 10 32 17 15 4 -11 6 -23 4 -27 -3 -4 1 -10 7 -14 9 -5 10 7 5 47 l-7 53
21 -19 c14 -12 20 -28 17 -42z"/>
<path d="M525 1887 c6 -22 0 -26 -69 -51 -105 -39 -126 -57 -126 -110 0 -61
41 -116 87 -116 13 0 62 15 109 34 69 28 86 32 91 20 3 -8 9 -14 13 -14 5 0 1
18 -7 40 -16 40 -35 56 -26 22 3 -15 -9 -24 -57 -46 -117 -53 -150 -54 -175
-5 -18 34 -19 83 -2 96 17 14 166 73 183 73 8 0 14 -7 14 -15 0 -8 4 -15 9
-15 5 0 -1 25 -12 55 -22 55 -43 76 -32 32z"/>
<path d="M4779 1725 c-11 -11 -37 -12 -144 -6 -71 5 -134 5 -138 1 -4 -4 38
-50 93 -103 81 -78 100 -101 95 -117 -12 -37 4 -20 25 26 24 56 25 66 2 37
l-17 -22 -39 36 -38 35 18 40 c17 38 20 40 53 34 20 -3 44 -6 54 -6 14 0 16
-6 12 -27 -3 -16 6 -4 20 26 27 57 28 70 4 46z m-155 -68 c-9 -18 -17 -33 -18
-34 -1 -2 -19 14 -39 35 l-36 37 54 -3 55 -4 -16 -31z"/>
<path d="M645 1583 c0 -22 -12 -34 -89 -80 -84 -51 -89 -53 -107 -37 -25 23
-24 15 7 -40 29 -53 38 -58 29 -18 -5 26 0 31 75 79 44 29 80 50 80 47 0 -3
-18 -65 -40 -138 -22 -73 -40 -138 -40 -145 0 -14 50 12 154 81 41 27 62 36
69 29 24 -24 26 -9 5 29 -13 22 -26 40 -30 40 -12 0 -10 -14 4 -28 6 -6 10
-14 7 -16 -11 -10 -163 -105 -166 -103 -1 2 17 64 41 138 39 124 42 138 29
163 -17 33 -29 33 -28 -1z"/>
<path d="M4379 1463 c-29 -32 -83 -123 -73 -123 4 0 12 7 19 16 11 15 22 11
108 -42 94 -57 97 -60 91 -89 -5 -25 0 -21 29 25 20 30 34 56 32 58 -2 2 -12
-2 -23 -9 -18 -11 -40 -3 -100 36 -1 1 0 10 4 19 6 14 19 17 82 15 71 -2 76
-1 95 25 23 32 15 47 -11 23 -13 -12 -37 -17 -80 -17 -59 0 -62 1 -62 25 0 31
-33 65 -63 65 -13 0 -35 -12 -48 -27z m81 -32 c13 -26 13 -43 -3 -65 -12 -17
-16 -16 -60 10 l-46 28 21 23 c27 29 73 31 88 4z"/>
<path d="M840 1306 c0 -4 4 -15 10 -25 8 -15 -4 -29 -74 -85 -46 -36 -88 -66
-94 -66 -5 0 -15 7 -22 15 -7 9 -15 13 -18 11 -4 -5 68 -106 75 -106 1 0 0 12
-2 28 -5 24 2 33 67 82 98 75 96 75 119 54 29 -26 23 -7 -13 40 -42 55 -48 61
-48 52z"/>
<path d="M4219 1225 c-29 -16 -143 -145 -135 -153 3 -3 12 1 21 8 16 13 35 0
145 -97 39 -36 43 -42 31 -57 -8 -9 -12 -19 -9 -21 6 -7 99 100 127 145 25 42
26 71 4 117 -30 65 -120 93 -184 58z m108 -35 c61 -37 78 -110 37 -168 -35
-50 -47 -47 -138 29 -96 80 -97 87 -28 134 44 30 86 32 129 5z"/>
<path d="M940 1175 c0 -6 4 -16 9 -23 7 -12 -54 -186 -88 -250 -9 -18 -9 -22
2 -22 7 0 17 4 23 8 5 5 57 28 116 51 74 29 114 40 130 36 19 -6 16 0 -16 34
-41 42 -57 48 -35 12 7 -11 11 -22 9 -25 -7 -6 -184 -84 -187 -82 -3 2 77 189
83 195 2 2 13 -4 24 -14 40 -36 19 2 -25 45 -25 24 -45 40 -45 35z"/>
<path d="M4012 1012 c-36 -30 -43 -49 -12 -32 17 9 27 3 72 -46 63 -66 81 -98
73 -124 -8 -25 -62 -70 -84 -70 -15 0 -62 44 -131 123 -21 24 -22 31 -12 47
17 28 6 25 -38 -12 -41 -34 -54 -57 -21 -36 17 10 23 7 48 -23 86 -104 104
-119 144 -119 31 0 45 7 74 35 54 55 49 85 -29 177 -48 56 -62 78 -54 86 24
24 1 19 -30 -6z"/>
<path d="M1170 944 c0 -4 7 -12 16 -18 13 -10 6 -24 -52 -101 -37 -50 -69 -92
-71 -95 -2 -2 -13 2 -25 9 -50 31 -5 -13 78 -77 l92 -71 28 30 c15 16 23 29
16 29 -6 0 -14 -4 -17 -10 -12 -19 -50 -10 -97 23 -27 17 -48 37 -48 42 0 6
15 28 34 49 l33 40 37 -29 c32 -24 36 -32 31 -57 -9 -38 -3 -35 29 12 31 47
32 54 7 38 -15 -9 -25 -6 -59 18 l-40 29 31 42 c17 24 32 43 34 43 2 0 24 -15
49 -32 41 -30 44 -36 40 -68 l-5 -35 19 25 c11 14 20 28 20 32 0 3 -33 30 -72
60 -40 29 -81 59 -90 66 -10 7 -18 10 -18 6z"/>
<path d="M3776 815 c-10 -8 -23 -16 -27 -17 -5 -2 -2 -43 6 -93 23 -138 27
-134 -73 -65 l-89 61 -36 -17 c-21 -10 -37 -21 -37 -26 0 -12 14 -10 28 4 8 8
15 8 27 -2 8 -7 15 -16 15 -20 0 -4 21 -45 46 -90 39 -72 43 -85 30 -92 -9 -5
-16 -13 -16 -18 0 -5 23 5 50 22 47 29 64 52 22 29 -15 -8 -23 -7 -34 7 -12
13 -70 108 -96 156 -8 14 53 -24 130 -82 39 -29 72 -52 73 -50 2 2 -5 52 -16
112 -10 61 -17 111 -15 113 2 2 25 -33 51 -77 36 -61 45 -84 36 -93 -26 -26
-8 -26 37 -1 64 37 72 46 36 38 -30 -6 -33 -3 -89 86 -53 84 -57 94 -42 105
18 13 22 25 10 25 -5 0 -17 -7 -27 -15z"/>
<path d="M1424 751 c21 -23 24 -14 -39 -125 -43 -76 -53 -87 -72 -83 -37 7
-27 -6 27 -34 48 -26 63 -26 38 -1 -8 8 -5 22 13 57 36 68 53 57 59 -38 5 -75
6 -79 38 -98 34 -22 42 -17 16 12 -10 11 -16 39 -17 79 -2 60 -1 63 23 66 28
5 60 38 60 63 -1 26 -22 47 -87 85 -69 41 -84 45 -59 17z m83 -53 c30 -28 30
-63 -1 -83 -18 -12 -30 -13 -50 -6 -14 6 -26 13 -26 15 0 10 44 96 49 96 3 0
15 -10 28 -22z"/>
<path d="M1682 593 c-37 -32 -33 -68 13 -123 51 -61 44 -110 -15 -110 -34 0
-60 28 -60 66 -1 28 -1 28 -15 10 -22 -28 -18 -51 9 -69 59 -39 117 -33 141
14 20 37 13 59 -36 122 -22 27 -39 52 -39 56 0 16 26 31 52 31 29 0 65 -40 53
-60 -3 -5 -2 -10 4 -10 5 0 13 10 17 22 5 16 0 27 -20 45 -32 27 -76 30 -104
6z"/>
<path d="M3350 469 c0 -123 -2 -144 -17 -156 -13 -10 -14 -13 -3 -9 8 2 32 10
53 17 42 14 50 29 12 21 -24 -4 -25 -3 -25 50 0 53 1 54 36 67 36 13 37 12 73
-23 33 -34 35 -38 19 -50 -30 -22 -20 -25 27 -7 52 20 66 31 38 31 -12 0 -52
37 -109 99 -49 55 -92 100 -96 100 -5 1 -8 -63 -8 -140z m75 12 c-6 -5 -22
-13 -37 -16 -28 -7 -28 -7 -28 46 l0 54 37 -37 c24 -24 34 -41 28 -47z"/>
<path d="M1890 541 c0 -5 9 -13 21 -16 11 -4 18 -12 16 -18 -2 -7 -17 -56 -32
-110 -26 -93 -30 -98 -52 -94 -13 2 -25 1 -28 -3 -5 -8 115 -43 122 -36 2 2
-5 7 -17 11 -25 8 -24 18 18 147 25 76 29 83 51 80 15 -2 21 0 17 7 -4 6 -15
11 -25 11 -10 0 -35 7 -55 15 -20 8 -36 11 -36 6z"/>
<path d="M3090 513 c-32 -12 -50 -37 -50 -69 0 -39 21 -56 90 -74 76 -20 98
-52 60 -90 -28 -28 -66 -25 -97 8 l-26 27 6 -25 c4 -14 7 -31 7 -39 0 -10 12
-12 50 -9 128 13 137 142 11 164 -72 13 -107 59 -62 84 30 15 56 12 76 -10 23
-25 28 -20 16 14 -11 26 -42 33 -81 19z"/>
<path d="M2056 472 c-23 -45 -20 -59 8 -33 20 19 32 22 59 17 l34 -6 -17 -98
c-19 -112 -23 -122 -53 -123 -12 -1 7 -7 42 -15 66 -14 93 -12 49 5 l-25 9 19
103 c10 56 20 104 22 107 3 2 21 1 41 -2 25 -5 35 -12 35 -26 0 -32 17 -31 24
1 9 46 8 55 -4 43 -13 -13 -200 20 -211 37 -4 8 -13 1 -23 -19z"/>
<path d="M2445 423 c-79 -193 -92 -218 -113 -221 -45 -7 -20 -22 36 -21 52 1
55 2 31 12 l-27 12 18 45 c16 42 20 45 59 48 44 3 50 -3 66 -75 6 -30 4 -33
-16 -33 -36 0 -18 -7 39 -14 30 -4 52 -3 52 2 0 6 -8 12 -17 14 -13 4 -29 41
-57 132 -22 70 -43 129 -48 132 -4 3 -15 -12 -23 -33z m29 -66 l14 -47 -38 0
-39 0 21 50 c11 28 22 49 24 47 2 -2 10 -25 18 -50z"/>
<path d="M2682 427 c-42 -44 -28 -79 47 -117 74 -37 87 -53 73 -85 -23 -49
-99 -38 -122 18 -8 18 -9 14 -7 -18 l2 -40 54 -3 c66 -4 101 22 101 74 0 40
-18 59 -85 89 -62 27 -76 52 -45 77 35 28 65 23 89 -17 10 -18 11 -17 9 10 -3
28 -6 30 -48 33 -37 2 -50 -1 -68 -21z"/>
</g>
</svg>
